<svg  viewBox="0 0 1140 322" fill="none" xmlns="http://www.w3.org/2000/svg">
<path d="M-0.000244141 0.94751H1140V321.948H-0.000244141V0.94751Z" fill="#F0F7FA"/>
<mask id="mask0" mask-type="alpha" maskUnits="userSpaceOnUse" x="-1" y="0" width="1141" height="322">
<path d="M-0.000244141 0.94751H1140V321.948H-0.000244141V0.94751Z" fill="#F0F7FA"/>
</mask>
<g mask="url(#mask0)">
<circle opacity="0.5" cx="692.458" cy="476.186" r="634.082" fill="url(#paint0_radial)"/>
<circle opacity="0.7" cx="175.637" cy="555.306" r="423.566" fill="url(#paint1_radial)"/>
<path d="M254.662 405.58H-167.91V131.74C-167.91 -19.1146 -41.1386 -142.1 114.646 -142.1H537.218V131.74C537.218 282.595 410.446 405.58 254.662 405.58ZM-164.757 402.551H254.662C408.554 402.551 534.065 280.777 534.065 131.74V-139.071H114.646C-39.2465 -139.071 -164.757 -17.2971 -164.757 131.74V402.551Z" fill="#E7EBED"/>
<path d="M304.209 599.387H-417.433V131.74C-417.433 -125.88 -200.94 -335.907 65.0983 -335.907H786.74V131.74C786.74 389.36 570.248 599.387 304.209 599.387ZM-412.047 594.214H304.209C567.016 594.214 781.355 386.256 781.355 131.74V-330.734H65.0983C-197.709 -330.734 -412.047 -122.776 -412.047 131.74V594.214Z" fill="#D1F4FF"/>
<path opacity="0.1" d="M557.029 747.118H-141.33V294.559C-141.33 45.2511 68.1778 -158 325.633 -158H1023.99V294.559C1023.99 543.867 814.484 747.118 557.029 747.118ZM-136.118 742.112H557.029C811.357 742.112 1018.78 540.863 1018.78 294.559V-152.994H325.633C71.3048 -152.994 -136.118 48.2548 -136.118 294.559V742.112Z" fill="#91BF29"/>
</g>
<defs>
<radialGradient id="paint0_radial" cx="0" cy="0" r="1" gradientUnits="userSpaceOnUse" gradientTransform="translate(692.458 476.186) rotate(89.846) scale(573.915)">
<stop stop-color="#7BB6D9"/>
<stop offset="1" stop-color="white" stop-opacity="0"/>
</radialGradient>
<radialGradient id="paint1_radial" cx="0" cy="0" r="1" gradientUnits="userSpaceOnUse" gradientTransform="translate(175.637 555.306) rotate(89.846) scale(383.375)">
<stop stop-color="#91BF29"/>
<stop offset="1" stop-color="white" stop-opacity="0"/>
</radialGradient>
</defs>
</svg>
