<svg width="1920" height="560" viewBox="0 0 1920 560" fill="none" xmlns="http://www.w3.org/2000/svg">
<rect width="1920" height="560" rx="30" fill="#F0F7FA"/>
<mask id="mask0" mask-type="alpha" maskUnits="userSpaceOnUse" x="0" y="0" width="1920" height="560">
<rect width="1920" height="560" rx="30" fill="#F0F7FA"/>
</mask>
<g mask="url(#mask0)">
<circle opacity="0.5" cx="1111.96" cy="721.713" r="634.082" fill="url(#paint0_radial)"/>
<circle opacity="0.7" cx="595.138" cy="800.833" r="423.566" fill="url(#paint1_radial)"/>
<path d="M324.162 291.107H-98.4102V17.267C-98.4102 -133.588 28.3616 -256.573 184.146 -256.573H606.718V17.267C606.718 168.122 479.947 291.107 324.162 291.107ZM-95.2566 288.078H324.162C478.055 288.078 603.565 166.304 603.565 17.267V-253.544H184.146C30.2538 -253.544 -95.2566 -131.77 -95.2566 17.267V288.078Z" fill="#E7EBED"/>
<path d="M373.71 484.914H-347.932V17.267C-347.932 -240.353 -131.44 -450.38 134.599 -450.38H856.24V17.267C856.24 274.887 639.748 484.914 373.71 484.914ZM-342.547 479.741H373.71C636.517 479.741 850.855 271.783 850.855 17.267V-445.207H134.599C-128.208 -445.207 -342.547 -237.249 -342.547 17.267V479.741Z" fill="#D1F4FF"/>
<path opacity="0.1" d="M626.53 632.645H-71.8298V180.086C-71.8298 -69.2218 137.678 -272.473 395.133 -272.473H1093.49V180.086C1093.49 429.394 883.985 632.645 626.53 632.645ZM-66.6182 627.639H626.53C880.858 627.639 1088.28 426.39 1088.28 180.086V-267.467H395.133C140.805 -267.467 -66.6182 -66.2181 -66.6182 180.086V627.639Z" fill="#91BF29"/>
</g>
<defs>
<radialGradient id="paint0_radial" cx="0" cy="0" r="1" gradientUnits="userSpaceOnUse" gradientTransform="translate(1111.96 721.713) rotate(89.846) scale(573.915)">
<stop stop-color="#7BB6D9"/>
<stop offset="1" stop-color="white" stop-opacity="0"/>
</radialGradient>
<radialGradient id="paint1_radial" cx="0" cy="0" r="1" gradientUnits="userSpaceOnUse" gradientTransform="translate(595.138 800.833) rotate(89.846) scale(383.375)">
<stop stop-color="#91BF29"/>
<stop offset="1" stop-color="white" stop-opacity="0"/>
</radialGradient>
</defs>
</svg>
