<svg width="21" height="21" viewBox="0 0 21 21" fill="none" xmlns="http://www.w3.org/2000/svg">
    <path d="M10.5 20.646C4.97715 20.646 0.5 16.1688 0.5 10.646C0.5 5.12315 4.97715 0.645996 10.5 0.645996C16.0228 0.645996 20.5 5.12315 20.5 10.646C20.4939 16.1663 16.0203 20.6399 10.5 20.646ZM2.5 10.818C2.54732 15.2192 6.14111 18.7555 10.5425 18.732C14.944 18.7082 18.4995 15.1335 18.4995 10.732C18.4995 6.3305 14.944 2.75577 10.5425 2.73199C6.14111 2.70845 2.54732 6.24476 2.5 10.646V10.818ZM11.5 15.646H9.5V11.646H5.5V9.646H9.5V5.646H11.5V9.646H15.5V11.646H11.5V15.646Z" fill="#D6DBE1"/>
</svg>