<svg xmlns="http://www.w3.org/2000/svg" style="display: none;">

    <symbol id="logo" viewBox="0 0 84 70">
        <path d="M0.10376 61.2223C0.10376 54.6667 4.40544 46.6667 11.7955 46.6667C16.5384 46.6667 18.6341 50.2223 18.6341 54.4445C18.6341 61.5556 14.2221 70.0001 6.94233 70.0001C2.30975 70.0001 0.10376 65.889 0.10376 61.2223ZM4.95694 60.5556C4.95694 63.6667 6.05993 66.1112 8.59682 66.1112C11.5749 66.1112 15.5457 62.2223 15.5457 54.3334C15.5457 50.7779 14.0015 48.889 12.0161 48.889C7.82472 49.0001 4.95694 55.5556 4.95694 60.5556Z" fill="#076197"/>
        <path d="M20.068 56.0001C21.2813 55.2223 22.4946 54.5557 23.9285 54.5557C25.1418 54.5557 25.9139 55.1112 25.583 56.2223L25.2521 57.5557C26.686 55.7779 28.892 54.5557 30.8774 54.5557C32.7525 54.5557 34.076 55.7779 33.1937 59.0001L31.5392 65.889C31.3186 66.7779 31.7598 67.1112 32.4216 67.1112C33.7452 67.1112 35.179 66.3334 36.0614 65.6668C36.3923 65.7779 36.6129 66.1112 36.6129 66.3334C36.6129 66.5557 36.5026 66.7779 36.282 67.0001C34.6275 68.5557 32.3113 70.0001 29.995 70.0001C28.2302 70.0001 26.4654 69.2223 27.3478 65.7779L28.7817 59.7779C29.1126 58.5557 28.5611 58.0001 27.789 58.0001C26.9066 58.0001 25.4727 58.7779 24.7006 59.5557L22.6049 68.1112C22.4946 69.4445 21.171 70.0001 19.9577 70.0001C19.2959 70.0001 18.7444 69.889 18.3032 69.5557L21.171 58.0001C21.2813 57.5557 21.171 57.2223 20.8401 57.2223C20.6195 57.2223 20.5092 57.3334 20.1783 57.5557C19.6268 57.4446 19.4062 56.5557 20.068 56.0001Z" fill="#076197"/>
        <path d="M40.4734 65.1112C40.8043 66.7779 42.1279 67.3334 43.6721 67.3334C46.2089 67.3334 49.2973 65.7779 50.8415 64.1112C51.7239 64.0001 52.0548 64.5557 51.7239 65.1112C49.2973 68.2223 45.3266 70.0001 41.9073 70.0001C38.7086 70.0001 36.0614 68.3334 36.0614 64.6668C36.0614 60.7779 39.0395 54.5557 44.7751 54.5557C47.9737 54.5557 48.7458 56.1112 48.7458 57.4446C48.7458 59.889 47.2016 61.889 40.4734 65.1112ZM40.3631 63.889C43.6721 62.1112 45.9883 60.0001 45.9883 58.0001C45.9883 57.3334 45.5472 56.7779 44.9957 56.7779C41.5764 56.7779 40.4734 61.7779 40.3631 63.889Z" fill="#076197"/>
        <path d="M55.5844 61.3335L55.805 61.2223C57.4595 60.7779 59.7758 58.0001 60.6582 54.7779C61.2097 54.5557 61.7612 54.4446 62.3127 54.4446C63.526 54.4446 64.0775 55.1112 64.0775 55.889C64.0775 57.6668 61.4303 60.3335 59.2243 61.5557C59.6655 63.2223 60.6582 66.7779 63.1951 66.7779C63.8569 66.7779 64.629 66.2223 65.5114 65.5557C65.8423 65.6668 66.0629 66.0001 66.0629 66.2223C66.0629 66.4446 65.9526 66.6668 65.732 66.889C64.629 68.3335 62.2024 70.0001 60.7685 70.0001C57.3492 70.0001 56.3565 65.2223 55.9153 62.889L55.2535 63.0001L54.0402 68.1112C53.7093 69.4446 52.3857 70.0001 51.1724 70.0001C50.5106 70.0001 49.9591 69.889 49.5179 69.6668L52.3857 58.1112C52.496 57.5557 52.3857 57.3335 52.0548 57.3335C51.8342 57.3335 51.7239 57.4446 51.393 57.6668C50.9518 57.4446 50.7312 56.4446 51.393 56.0001C52.6063 55.2224 53.8196 54.5557 55.2535 54.5557C56.4668 54.5557 57.2389 55.0001 56.908 56.2224L55.5844 61.3335Z" fill="#076197"/>
        <path d="M79.2988 64.889C78.9679 66.4446 79.4091 67.1112 80.0709 67.1112C80.7327 67.1112 81.5048 66.7779 82.0563 65.6668C82.7181 65.6668 83.049 66.0001 83.049 66.4445C83.049 68.5557 80.1812 70.0001 78.3061 70.0001C76.6516 70.0001 74.9971 69.3334 75.1074 67.0001C73.6735 68.7779 71.7984 70.0001 69.813 70.0001C66.1732 70.0001 65.5114 66.889 65.5114 65.0001C65.5114 59.7779 69.3718 54.5557 74.225 54.5557C75.7692 54.5557 76.8722 54.889 77.7546 55.5557C78.3061 55.0001 79.2988 54.6668 80.0709 54.6668C80.7327 54.6668 81.2842 54.7779 81.7254 55.0001L79.2988 64.889ZM75.1074 65.0001L77.0928 57.0001C76.5413 56.7779 75.9898 56.7779 75.4383 56.7779C71.2469 56.7779 69.813 61.5557 69.813 64.7779C69.813 66.2223 70.5851 66.889 71.6881 66.889C72.6808 66.889 74.1147 66.1112 75.1074 65.0001Z" fill="#076197"/>
        <path fill-rule="evenodd" clip-rule="evenodd" d="M81.9459 37.4445C79.409 38.5556 77.0928 39.1111 74.7765 39.3334C66.504 38.7778 62.5332 31.4445 53.7093 28.3334C56.6873 27.7778 58.8933 25.7778 58.6727 21.3334C66.7246 17.3334 69.5924 7.55558 69.1512 -0.111084C69.1512 -0.111084 69.1512 -0.111084 69.0409 0.111138C68.9306 0.222249 68.8203 0.555583 68.8203 0.555583C59.7757 19.2222 27.8992 6.11114 24.3696 25.4445C22.0533 22.3334 18.634 21.5556 16.6486 23.6667C15.6559 23 13.8912 22.7778 12.1264 24.1111C13.2294 24.2223 14.4426 24.8889 15.4353 25.7778C14.4426 25.1111 13.2294 25.2223 11.9058 25.7778C13.3397 25.6667 14.7735 25.7778 16.428 26.6667V26.5556C15.7662 25.3334 14.7735 24.1111 13.3397 24C14.9941 23.8889 16.428 24.3334 17.531 25.3334C17.4207 24.1111 18.3031 23.5556 19.2958 23.5556C24.3696 23.4445 26.4653 30 27.0168 32.1111C26.7962 29.6667 26.1344 27.6667 25.1417 26.1111C28.8919 9.11114 61.5405 21.7778 68.2688 3.77781C68.4894 8.55558 65.2907 16.2222 58.8933 19.8889C58.783 20 57.9006 20.3334 57.9006 20.3334C57.9006 20.3334 58.0109 20.8889 58.0109 21.3334C58.0109 21.5556 58.0109 21.7778 58.0109 21.8889C57.7903 26.1111 53.1578 27.1111 50.29 26.6667C46.4295 26.1111 41.1351 24 33.8554 27C31.6494 27.8889 29.3331 29.4445 27.0168 32C45.7677 17 59.6654 49.8889 80.7326 38.1111C70.3645 45.6667 45.4368 47.2223 33.9657 34C39.8115 45.4445 70.5851 53.3334 81.9459 37.4445ZM45.3265 28.1111C55.0329 27.8889 60.5478 36 67.2761 38.7778C59.1139 37 52.1651 31.1111 45.3265 28.1111Z" fill="#076197"/>
        <path fill-rule="evenodd" clip-rule="evenodd" d="M30.5464 46.6667C14.9942 38.7778 19.5164 27.4445 11.6852 25.8889C19.2958 29.3334 12.8985 41.5556 30.5464 46.6667Z" fill="#076197"/>
        <path fill-rule="evenodd" clip-rule="evenodd" d="M19.1856 26.3333C18.7444 26.8888 18.965 27.7777 19.6268 27.9999C20.2886 28.2222 20.5092 28.111 20.8401 28.3333L21.5019 28.7777C21.5019 28.7777 21.3916 28.4444 21.2813 27.9999C21.0607 27.5555 21.2813 26.9999 20.8401 26.4444C20.2886 25.8888 19.6268 25.7777 19.1856 26.3333ZM19.7371 27.4444C19.5165 27.3333 19.5165 26.9999 19.6268 26.7777C19.8474 26.5555 20.068 26.5555 20.1783 26.7777C20.3989 26.7777 21.0607 28.111 19.7371 27.4444Z" fill="#076197"/>
        <path fill-rule="evenodd" clip-rule="evenodd" d="M13.5602 25.3334C14.0014 22.6667 15.4353 20.4445 17.9722 18.5556L17.4207 17.8889C14.9941 20.1111 13.119 22 12.6778 25.3334C13.0087 25.4445 13.3396 25.4445 13.5602 25.3334ZM13.119 31.6667C13.7808 34.2222 14.6632 34.5556 15.1044 34.2222C13.8911 31.5556 13.3396 29.1111 13.4499 26.8889C13.2293 26.6667 13.0087 26.4445 12.6778 26.3334C12.5675 27.7778 12.6778 29.5556 13.119 31.6667Z" fill="#91BF29"/>
        <path fill-rule="evenodd" clip-rule="evenodd" d="M14.1118 23.5556C11.3543 25.8889 15.3251 20.8889 13.8912 16.2222L14.7736 16C15.656 18.2222 15.2148 20.5556 14.1118 23.5556Z" fill="#91BF29"/>
        <path fill-rule="evenodd" clip-rule="evenodd" d="M16.9796 18.5555C17.5311 12.2222 23.8182 14.7777 25.8036 13.2222C25.2521 16.7777 21.2813 19.4444 17.3105 19.1111L16.9796 18.5555Z" fill="#91BF29"/>
        <path fill-rule="evenodd" clip-rule="evenodd" d="M14.4427 18C12.4573 13.3333 8.26596 16.1111 6.39087 15C7.38356 18.1111 11.244 19.5556 14.2221 18.8889L14.4427 18Z" fill="#91BF29"/>
        <path fill-rule="evenodd" clip-rule="evenodd" d="M13.8912 16.3333C10.4719 11.6666 14.6633 10.2222 14.553 8.11108C17.8619 10.7778 16.6487 14.8889 14.7736 16.7778L13.8912 16.3333Z" fill="#91BF29"/>
        <path fill-rule="evenodd" clip-rule="evenodd" d="M7.38354 11.4444L7.49384 11C11.0234 11.4444 13.3397 13.3333 14.3324 15.5556C14.4427 15.8889 14.0015 16.1111 14.1118 16.5556C12.347 13.5556 10.0307 12 7.38354 11.4444Z" fill="#91BF29"/>
        <path fill-rule="evenodd" clip-rule="evenodd" d="M7.93506 10.9999C6.28056 6.44436 3.19218 9.44436 1.20679 8.33325C2.19948 11.111 5.17757 11.9999 7.71446 11.4444L7.93506 10.9999Z" fill="#91BF29"/>
        <path fill-rule="evenodd" clip-rule="evenodd" d="M11.5749 12.6666C13.3396 7.66661 8.92767 7.22217 7.93497 5.22217C7.16288 8.33328 8.59677 10.5555 10.4719 11.8888L11.5749 12.6666Z" fill="#91BF29"/>
    </symbol>

    <symbol id="nurse" viewBox="0 0 37 37">
        <g clip-path="url(#clip0)">
        <path d="M26.3682 14.9499L25.9017 7.58139C25.7308 4.88089 23.4907 2.7782 20.7849 2.7782H16.5193C13.8135 2.7782 11.5734 4.88096 11.4025 7.58139L10.936 14.9499C10.8296 16.631 12.1644 18.0529 13.8488 18.0529H23.4554C25.1398 18.0528 26.4746 16.6309 26.3682 14.9499Z" fill="#FFB125"/>
        <path d="M26.3683 14.9499L25.9018 7.58139C25.7309 4.88089 23.4908 2.7782 20.7849 2.7782H19.9868C21.1524 2.7782 22.1173 3.68396 22.1909 4.84721L23.0269 18.0529H23.4555C25.1399 18.0528 26.4747 16.6309 26.3683 14.9499Z" fill="#FF901D"/>
        <path d="M17.2182 31.8894C17.813 33.0644 19.4911 33.0644 20.0859 31.8894L24.8165 22.5435L23.2922 22.1733C22.5854 22.0313 22.0769 21.2114 22.0769 20.4904V17.2776H18.652H15.2273V20.4904C15.2273 21.2113 14.7188 22.0313 14.0119 22.1733L12.4877 22.5435L17.2182 31.8894Z" fill="#FFE7CF"/>
        <path d="M25.0844 10.7338H24.6739C24.6739 10.5058 24.4992 10.316 24.2721 10.2955C18.8008 9.80319 17.0024 8.27002 15.5098 6.72181C15.2443 6.44632 12.6717 7.53244 12.6304 10.0576V10.7338H12.2198C11.6179 10.7338 11.13 11.2218 11.13 11.8237V13.0314C11.13 13.6333 11.618 14.1213 12.2198 14.1213H12.632C12.666 15.703 13.7834 17.2255 14.9842 18.2594C15.9509 19.0918 16.8571 19.8184 18.6522 19.8384C20.4473 19.8184 21.3535 19.0918 22.3202 18.2594C23.521 17.2255 24.6384 15.703 24.6723 14.1213H25.0845C25.6865 14.1213 26.1744 13.6333 26.1744 13.0314V11.8237C26.1743 11.2217 25.6863 10.7338 25.0844 10.7338Z" fill="#FFE7CF"/>
        <path d="M24.6738 10.7338C24.6738 10.5058 24.4992 10.3159 24.272 10.2955C23.0494 10.1854 22.0107 10.0234 21.1173 9.82086L21.1163 14.1212C21.0823 15.703 19.9649 17.2254 18.7641 18.2593C18.1815 18.761 17.6206 19.224 16.8741 19.5172C17.3663 19.7106 17.9389 19.8304 18.6521 19.8383C20.4471 19.8183 21.3533 19.0918 22.3201 18.2593C23.5208 17.2254 24.6382 15.703 24.6722 14.1212L24.6738 10.7338Z" fill="#F4D5BA"/>
        <path d="M23.224 0.95829L20.1162 0.327235C19.1967 0.140555 18.249 0.140555 17.3294 0.327235L14.2216 0.95829C13.7342 1.05729 13.4523 1.57022 13.6301 2.0347L14.4123 4.07855C14.6058 4.58424 15.0911 4.91815 15.6325 4.91815H21.813C22.3544 4.91815 22.8398 4.58424 23.0333 4.07855L23.8154 2.0347C23.9933 1.57022 23.7114 1.05729 23.224 0.95829Z" fill="#24D9DE"/>
        <path d="M23.224 0.958357L21.6276 0.634216L19.9474 4.59577C19.8731 4.78997 19.6867 4.91822 19.4788 4.91822H21.813C22.3544 4.91822 22.8398 4.58431 23.0333 4.07862L23.8154 2.03477C23.9932 1.57029 23.7114 1.05736 23.224 0.958357Z" fill="#11B9C1"/>
        <path d="M33.9768 34.9676L32.3943 25.7027C32.2584 24.907 31.684 24.2567 30.9111 24.0234L23.807 21.88C23.5092 21.7901 23.1899 21.9269 23.0495 22.2044L19.6575 28.9057C19.2405 29.7296 18.0637 29.7296 17.6467 28.9057L14.2548 22.2044C14.1143 21.9269 13.795 21.7901 13.4972 21.88L6.39313 24.0234C5.62025 24.2566 5.04587 24.907 4.90996 25.7027L3.32743 34.9676C3.21852 35.6052 3.70965 36.1873 4.35646 36.1873H32.9478C33.5946 36.1873 34.0857 35.6052 33.9768 34.9676Z" fill="#24D9DE"/>
        <path d="M33.9769 34.9676L32.3944 25.7027C32.2584 24.907 31.6841 24.2566 30.9112 24.0234L23.8071 21.88C23.5093 21.7901 23.19 21.9269 23.0495 22.2044L22.2928 23.6993L27.974 25.4135C28.3677 25.5323 28.6604 25.8637 28.7297 26.2691L30.4238 36.1873H32.9479C33.5947 36.1873 34.0858 35.6051 33.9769 34.9676Z" fill="#11B9C1"/>
        <path d="M8.72961 36.1873L9.66364 30.7193C9.71398 30.4245 9.51584 30.1447 9.22102 30.0944C8.92634 30.044 8.64643 30.2422 8.59608 30.5369L7.63421 36.1682C7.63315 36.1746 7.6328 36.1809 7.63196 36.1872H8.72961V36.1873Z" fill="#11B9C1"/>
        <path d="M29.6702 36.1683L28.7083 30.537C28.658 30.2422 28.3784 30.0438 28.0834 30.0945C27.7885 30.1448 27.5904 30.4246 27.6408 30.7194L28.5747 36.1873H29.6724C29.6716 36.181 29.6712 36.1747 29.6702 36.1683Z" fill="#11B9C1"/>
        <path d="M19.6058 1.97629H19.1936V1.56412C19.1936 1.26501 18.9511 1.02264 18.6521 1.02264C18.3531 1.02264 18.1106 1.26508 18.1106 1.56412V1.97629H17.6985C17.3994 1.97629 17.157 2.21873 17.157 2.51777C17.157 2.81681 17.3994 3.05925 17.6985 3.05925H18.1106V3.47135C18.1106 3.77046 18.3531 4.01282 18.6521 4.01282C18.9511 4.01282 19.1936 3.77039 19.1936 3.47135V3.05925H19.6058C19.9048 3.05925 20.1472 2.81681 20.1472 2.51777C20.1472 2.21873 19.9048 1.97629 19.6058 1.97629Z" fill="white"/>
        <path d="M23.104 22.116C22.4972 21.8801 22.0769 21.1452 22.0769 20.4903V18.4665C21.457 18.988 20.8287 19.4446 19.9398 19.6765V21.7271C19.9398 22.4518 20.4511 23.2762 21.1616 23.419L22.2953 23.6943L23.0495 22.2043C23.0654 22.173 23.0838 22.1437 23.104 22.116Z" fill="#F4D5BA"/>
        <path d="M17.6468 28.9056C18.0638 29.7296 19.2406 29.7296 19.6576 28.9056L22.3044 23.6765H15L17.6468 28.9056Z" fill="#E1EFFB"/>
        </g>
        <defs>
        <clipPath id="clip0">
        <rect width="36" height="36" fill="white" transform="translate(0.6521 0.187256)"/>
        </clipPath>
        </defs>
    </symbol>   

    <symbol id="building" width="37" height="37" viewBox="0 0 37 37">
        <g clip-path="url(#clip0)">
        <path d="M28.0375 35.041C30.0834 35.041 31.742 33.3825 31.742 31.3365C31.742 29.2906 30.0834 27.632 28.0375 27.632C25.9916 27.632 24.333 29.2906 24.333 31.3365C24.333 33.3825 25.9916 35.041 28.0375 35.041Z" fill="url(#paint0_linear)"/>
        <path d="M35.7521 34.774C35.7521 35.327 35.6475 35.8548 35.4565 36.3398H27.4927C27.3018 35.8548 27.1971 35.327 27.1971 34.774C27.1971 34.2355 27.2965 33.7207 27.4783 33.2463C28.0931 31.6377 29.6506 30.4964 31.4746 30.4964C33.2986 30.4964 34.8561 31.6375 35.471 33.2463C35.6529 33.7207 35.7521 34.2355 35.7521 34.774Z" fill="url(#paint1_linear)"/>
        <path d="M29.3997 1.50079H8.06299V36.3397H29.3997V1.50079Z" fill="url(#paint2_linear)"/>
        <path d="M29.3993 1.50079V8.05244H13.0108L8.06287 3.10469V1.50079H29.3993Z" fill="url(#paint3_linear)"/>
        <path d="M29.3993 12.5204V19.0722H13.0108L8.06287 14.1243V12.5204H29.3993Z" fill="url(#paint4_linear)"/>
        <path d="M29.3993 23.5401V30.0917H13.0108L8.06287 25.1439V23.5401H29.3993Z" fill="url(#paint5_linear)"/>
        <path d="M29.9508 0.80918V2.55321C29.9508 2.81238 29.7407 3.02255 29.4815 3.02255H7.98057C7.72139 3.02255 7.51123 2.81238 7.51123 2.55321V0.80918C7.51123 0.550008 7.72139 0.339844 7.98057 0.339844H29.4815C29.7407 0.339844 29.9508 0.550008 29.9508 0.80918Z" fill="url(#paint6_linear)"/>
        <path d="M22.2969 12.6245H13.0785L10.3761 9.92207C10.3754 9.92207 10.3754 9.92136 10.3746 9.92059C10.3607 9.9118 10.3468 9.90231 10.3336 9.89275C10.3322 9.89204 10.3308 9.89057 10.3293 9.88979C10.3175 9.88023 10.3059 9.87074 10.2949 9.86195C10.281 9.85091 10.2686 9.83924 10.2561 9.82679C10.2443 9.81575 10.2335 9.80485 10.2224 9.79311C10.2107 9.78137 10.2005 9.76899 10.1894 9.75655C10.1784 9.7441 10.1682 9.73096 10.1586 9.71703C10.1491 9.70381 10.1396 9.68989 10.1308 9.67604C10.1125 9.6482 10.0964 9.61895 10.0817 9.58893C10.0678 9.5589 10.0546 9.52747 10.0444 9.49527C10.0385 9.47917 10.0341 9.46306 10.0298 9.44696C10.0217 9.41842 10.0158 9.38987 10.0122 9.36055C10.01 9.3481 10.0078 9.33566 10.007 9.32251C10.0056 9.31154 10.0049 9.29987 10.0042 9.28813C10.0035 9.27273 10.0027 9.2574 10.0027 9.242V5.16212C10.0027 4.71486 10.3665 4.35114 10.8137 4.35114H13.7532C13.7693 4.35114 13.7854 4.35184 13.8015 4.35261C13.8133 4.35331 13.8249 4.35409 13.8359 4.35556C13.8484 4.35627 13.86 4.35774 13.8725 4.35992C13.8871 4.3621 13.9018 4.36428 13.9163 4.36794C13.931 4.37089 13.9457 4.37378 13.9595 4.37821C13.9764 4.38256 13.9925 4.38692 14.0086 4.39283C14.0408 4.4031 14.0723 4.41624 14.1023 4.43017C14.1323 4.44479 14.1615 4.46089 14.1894 4.47924C14.204 4.48796 14.2172 4.49753 14.2311 4.50779C14.2435 4.51651 14.256 4.52685 14.2684 4.53634C14.2838 4.54878 14.2984 4.56193 14.3123 4.57585C14.3225 4.58542 14.3327 4.59561 14.3423 4.60588C14.3533 4.61692 14.3635 4.62859 14.3738 4.64026C14.3753 4.64244 14.3767 4.64462 14.3789 4.6468C14.3987 4.67092 14.417 4.69588 14.4331 4.72147C14.4331 4.72147 14.4345 4.72217 14.4345 4.72295L14.4126 4.74053L16.1839 6.51184L16.6699 6.99784L17.1157 7.44362L17.7408 8.06877L19.6256 9.95357L20.1124 10.4403L22.2969 12.6245Z" fill="url(#paint7_linear)"/>
        <path d="M13.7536 9.57567H10.8135C10.6281 9.57567 10.4778 9.42542 10.4778 9.23993V5.16216C10.4778 4.97674 10.628 4.82642 10.8135 4.82642H13.7536C13.939 4.82642 14.0893 4.97667 14.0893 5.16216V9.24C14.0893 9.42535 13.939 9.57567 13.7536 9.57567Z" fill="#503837"/>
        <path d="M14.486 4.81349C14.4711 4.78213 14.4539 4.75161 14.435 4.72257L14.4335 4.7218C14.417 4.69593 14.3989 4.67082 14.3794 4.64657C14.3771 4.64502 14.3755 4.64263 14.3739 4.64031C14.3637 4.62857 14.3535 4.61683 14.3426 4.60579C14.3331 4.59552 14.3229 4.5854 14.3127 4.57597C14.2986 4.56184 14.2837 4.54848 14.2689 4.53604C14.2563 4.52661 14.2438 4.51642 14.2313 4.50777C14.2171 4.4975 14.2045 4.48815 14.1897 4.47873C14.1622 4.46073 14.1325 4.44505 14.1027 4.43015C14.0728 4.41601 14.0408 4.40265 14.0086 4.39253C13.9929 4.38704 13.9764 4.38226 13.9599 4.3784C13.9458 4.37368 13.9309 4.37059 13.9168 4.3682C13.9019 4.36426 13.887 4.36194 13.8729 4.35962C13.8604 4.3573 13.8487 4.35653 13.8361 4.35568C13.8251 4.35414 13.8134 4.35336 13.8016 4.35259C13.7859 4.35182 13.7694 4.35104 13.7529 4.35104H10.8134C10.3665 4.35104 10.0028 4.71477 10.0028 5.16238V9.24247C10.0028 9.25738 10.0036 9.27306 10.0044 9.28797C10.0051 9.29971 10.0059 9.31145 10.0067 9.32249C10.0074 9.33585 10.0098 9.34836 10.0122 9.36088C10.0161 9.38992 10.0216 9.41889 10.0294 9.44715C10.0341 9.46361 10.0388 9.47929 10.0443 9.49574C10.0545 9.52787 10.0678 9.5593 10.0819 9.58904C10.096 9.61886 10.1125 9.6486 10.1306 9.67609C10.1391 9.69022 10.1494 9.70436 10.1588 9.71765C10.1683 9.731 10.1784 9.74429 10.1894 9.75681C10.2004 9.76939 10.2106 9.78184 10.2223 9.79365C10.2333 9.80546 10.2443 9.81636 10.256 9.8274C10.2686 9.83922 10.281 9.85089 10.2944 9.86193C10.3054 9.87135 10.3171 9.88077 10.3289 9.89019C10.3305 9.89096 10.332 9.89251 10.3336 9.89329C10.347 9.90271 10.3603 9.91213 10.3743 9.92078C10.3751 9.92155 10.3751 9.92232 10.3759 9.92232C10.5021 10.0047 10.6518 10.0509 10.8133 10.0509H13.7528C14.2005 10.0509 14.5642 9.68713 14.5642 9.24029V5.16231C14.5643 5.03765 14.5361 4.91931 14.486 4.81349ZM13.6143 9.10058H10.953V5.30188H13.6143V9.10058Z" fill="white"/>
        <path d="M28.8511 12.6245H19.6328L16.9304 9.92207C16.9297 9.92207 16.9297 9.92136 16.929 9.92059C16.915 9.9118 16.9011 9.90231 16.888 9.89275C16.8865 9.89204 16.8851 9.89057 16.8836 9.88979C16.8719 9.88023 16.8602 9.87074 16.8492 9.86195C16.8353 9.85091 16.8229 9.83924 16.8104 9.82679C16.7987 9.81575 16.7878 9.80485 16.7767 9.79311C16.765 9.78137 16.7548 9.76899 16.7438 9.75655C16.7327 9.7441 16.7225 9.73096 16.713 9.71703C16.7034 9.70381 16.6939 9.68989 16.6851 9.67604C16.6668 9.6482 16.6507 9.61895 16.636 9.58893C16.6221 9.5589 16.6089 9.52747 16.5987 9.49527C16.5929 9.47917 16.5884 9.46306 16.5841 9.44696C16.5761 9.41842 16.5702 9.38987 16.5665 9.36055C16.5643 9.3481 16.5621 9.33566 16.5614 9.32251C16.5599 9.31154 16.5592 9.29987 16.5585 9.28813C16.5578 9.27273 16.557 9.2574 16.557 9.242V5.16212C16.557 4.71486 16.9208 4.35114 17.368 4.35114H20.3075C20.3236 4.35114 20.3397 4.35184 20.3558 4.35261C20.3676 4.35331 20.3793 4.35409 20.3902 4.35556C20.4027 4.35627 20.4144 4.35774 20.4268 4.35992C20.4414 4.3621 20.4561 4.36428 20.4707 4.36794C20.4853 4.37089 20.5 4.37378 20.5138 4.37821C20.5307 4.38256 20.5468 4.38692 20.5629 4.39283C20.5951 4.4031 20.6266 4.41624 20.6566 4.43017C20.6866 4.44479 20.7159 4.46089 20.7437 4.47924C20.7583 4.48796 20.7715 4.49753 20.7854 4.50779C20.7978 4.51651 20.8103 4.52685 20.8227 4.53634C20.8381 4.54878 20.8527 4.56193 20.8666 4.57585C20.8769 4.58542 20.8871 4.59561 20.8966 4.60588C20.9076 4.61692 20.9179 4.62859 20.9281 4.64026C20.9296 4.64244 20.931 4.64462 20.9333 4.6468C20.953 4.67092 20.9713 4.69588 20.9874 4.72147C20.9874 4.72147 20.9889 4.72217 20.9889 4.72295L20.9669 4.74053L22.7383 6.51184L23.2242 6.99784L23.67 7.44362L24.2952 8.06877L26.18 9.95357L26.6667 10.4403L28.8511 12.6245Z" fill="url(#paint8_linear)"/>
        <path d="M20.3079 9.57567H17.3678C17.1824 9.57567 17.0321 9.42542 17.0321 9.23993V5.16216C17.0321 4.97674 17.1824 4.82642 17.3678 4.82642H20.3079C20.4933 4.82642 20.6436 4.97667 20.6436 5.16216V9.24C20.6436 9.42535 20.4933 9.57567 20.3079 9.57567Z" fill="#503837"/>
        <path d="M21.0415 4.81513C21.0415 4.81435 21.0407 4.81435 21.0407 4.81358C21.025 4.78222 21.0078 4.75171 20.989 4.72267L20.9874 4.72189C20.9717 4.69602 20.9529 4.67092 20.9333 4.64666C20.931 4.64511 20.9302 4.64272 20.9286 4.6404C20.9184 4.62866 20.9082 4.61692 20.8973 4.60588C20.8871 4.59561 20.8769 4.58549 20.8667 4.57607C20.8533 4.56193 20.8384 4.54857 20.8228 4.53613C20.8102 4.52671 20.7978 4.51651 20.786 4.50786C20.7718 4.4976 20.7585 4.48824 20.7436 4.47882C20.7161 4.46082 20.6872 4.44514 20.6566 4.43024C20.6268 4.4161 20.5955 4.40274 20.5633 4.39262C20.5469 4.38714 20.5312 4.38235 20.5139 4.37849C20.4998 4.37378 20.4857 4.37068 20.4708 4.36829C20.4559 4.36435 20.4418 4.36203 20.4269 4.35971C20.4144 4.35739 20.4027 4.35662 20.3901 4.35578C20.3791 4.35423 20.3674 4.35346 20.3556 4.35268C20.3399 4.35191 20.3234 4.35114 20.3078 4.35114H17.3682C16.9206 4.35114 16.5569 4.71486 16.5569 5.16247V9.24256C16.5569 9.25747 16.5577 9.27315 16.5584 9.28806C16.5592 9.2998 16.56 9.31154 16.5615 9.32258C16.5623 9.33594 16.5646 9.34846 16.5662 9.36097C16.5702 9.39001 16.5764 9.41898 16.5842 9.44724C16.5882 9.4637 16.5928 9.47938 16.5984 9.49583C16.6093 9.52796 16.6219 9.55939 16.636 9.58913C16.6509 9.61895 16.6666 9.64869 16.6854 9.67618C16.694 9.69031 16.7034 9.70445 16.7129 9.71774C16.7223 9.7311 16.7325 9.74438 16.7435 9.7569C16.7545 9.76949 16.7647 9.78193 16.7764 9.79374C16.7874 9.80556 16.7983 9.81645 16.8101 9.82749C16.8227 9.83931 16.8352 9.85098 16.8493 9.86202C16.8603 9.87144 16.872 9.88086 16.8838 9.89028C16.8854 9.89106 16.8862 9.8926 16.8878 9.89338C16.9011 9.9028 16.9153 9.91222 16.9293 9.92087C16.9301 9.92164 16.9301 9.92242 16.9301 9.92242C17.0563 10.0048 17.206 10.0509 17.3683 10.0509H20.3078C20.7547 10.0509 21.1184 9.68722 21.1184 9.24038V5.16233C21.1183 5.03851 21.0901 4.9201 21.0415 4.81513ZM20.1683 9.1006H17.5069V5.3019H20.1682V9.1006H20.1683Z" fill="white"/>
        <path d="M29.3993 6.61874V12.6241H26.187L23.485 9.92202C23.4842 9.92202 23.4842 9.92125 23.4834 9.92048C23.4693 9.9119 23.4552 9.90241 23.4427 9.89298C23.4412 9.89221 23.4396 9.89066 23.438 9.88989C23.4262 9.88047 23.4145 9.87105 23.4035 9.86162C23.3893 9.85059 23.3777 9.83891 23.3651 9.8271C23.3533 9.81613 23.3424 9.80516 23.3313 9.79335C23.3195 9.78161 23.3094 9.76909 23.2984 9.75651C23.2875 9.74392 23.2773 9.73063 23.2678 9.71734C23.2576 9.70398 23.2482 9.68985 23.2396 9.67579C23.2216 9.6483 23.2051 9.61855 23.1901 9.58874C23.1768 9.55893 23.1635 9.52764 23.1533 9.49544C23.147 9.47898 23.1431 9.4633 23.1384 9.44685C23.1306 9.41859 23.1243 9.38962 23.1212 9.36058C23.1188 9.34799 23.1165 9.33555 23.1157 9.32219C23.1141 9.31122 23.1134 9.29948 23.1126 9.28766C23.1126 9.27276 23.1118 9.25708 23.1118 9.24217V5.16229C23.1118 4.71468 23.4755 4.35095 23.9224 4.35095H26.8619C26.8784 4.35095 26.8941 4.35173 26.9106 4.3525C26.9223 4.35327 26.9341 4.35405 26.9451 4.35559C26.9577 4.35637 26.9694 4.35714 26.9812 4.35953C26.9961 4.36185 27.011 4.36424 27.0251 4.36811C27.04 4.37043 27.0549 4.37359 27.0689 4.3783C27.0854 4.38217 27.1018 4.38688 27.1175 4.39244C27.1497 4.40263 27.1811 4.41592 27.2116 4.43005C27.2414 4.44496 27.2704 4.46064 27.2986 4.47864C27.3128 4.48806 27.3261 4.49748 27.3402 4.50768C27.3528 4.51626 27.3652 4.52652 27.3778 4.53594C27.3927 4.54853 27.4076 4.56175 27.4217 4.57588C27.4319 4.5853 27.4421 4.5955 27.4515 4.60569C27.4625 4.61666 27.4727 4.62841 27.4829 4.64022C27.4844 4.64254 27.486 4.64493 27.4883 4.64648C27.508 4.67073 27.526 4.69583 27.5424 4.72171L27.544 4.72248L27.522 4.74048L27.5949 4.8134L29.2928 6.51208L29.3993 6.61874Z" fill="url(#paint9_linear)"/>
        <path d="M26.8622 9.57567H23.9222C23.7368 9.57567 23.5864 9.42542 23.5864 9.23993V5.16216C23.5864 4.97674 23.7367 4.82642 23.9222 4.82642H26.8622C27.0476 4.82642 27.198 4.97667 27.198 5.16216V9.24C27.198 9.42535 27.0477 9.57567 26.8622 9.57567Z" fill="#503837"/>
        <path d="M27.5948 4.81349C27.5791 4.78213 27.5626 4.75161 27.5438 4.72257L27.5423 4.7218C27.5258 4.69593 27.5077 4.67082 27.4882 4.64657C27.4859 4.64502 27.4843 4.64263 27.4827 4.64031C27.4724 4.62857 27.4623 4.61683 27.4513 4.60579C27.4419 4.59552 27.4317 4.5854 27.4215 4.57597C27.4074 4.56184 27.3925 4.54848 27.3776 4.53604C27.3651 4.52661 27.3526 4.51642 27.34 4.50777C27.3259 4.4975 27.3125 4.48815 27.2985 4.47873C27.2702 4.46073 27.2412 4.44505 27.2114 4.43015C27.1808 4.41601 27.1496 4.40265 27.1174 4.39253C27.1017 4.38704 27.0852 4.38226 27.0688 4.3784C27.0546 4.37368 27.0397 4.37059 27.0249 4.3682C27.0108 4.36426 26.9959 4.36194 26.981 4.35962C26.9693 4.3573 26.9575 4.35653 26.9449 4.35568C26.934 4.35414 26.9222 4.35336 26.9104 4.35259C26.894 4.35182 26.8783 4.35104 26.8618 4.35104H23.9221C23.4753 4.35104 23.1116 4.71477 23.1116 5.16238V9.24247C23.1116 9.25738 23.1123 9.27306 23.1123 9.28797C23.1131 9.29971 23.1139 9.31145 23.1154 9.32249C23.1162 9.33585 23.1185 9.34836 23.1209 9.36088C23.124 9.38992 23.1303 9.41889 23.1381 9.44715C23.1429 9.46361 23.1467 9.47929 23.1531 9.49574C23.1633 9.52787 23.1765 9.5593 23.1899 9.58904C23.2048 9.61886 23.2213 9.6486 23.2393 9.67609C23.2479 9.69022 23.2573 9.70436 23.2676 9.71765C23.277 9.731 23.2872 9.74429 23.2982 9.75681C23.3092 9.76939 23.3193 9.78184 23.3311 9.79365C23.3421 9.80546 23.353 9.81636 23.3648 9.8274C23.3774 9.83922 23.3891 9.85089 23.4032 9.86193C23.4142 9.87135 23.4259 9.88077 23.4378 9.89019C23.4393 9.89096 23.4408 9.89251 23.4425 9.89329C23.455 9.90271 23.4691 9.91213 23.4832 9.92078C23.4839 9.92155 23.4839 9.92232 23.4847 9.92232C23.6102 10.0047 23.7606 10.0509 23.9221 10.0509H26.8617C27.3093 10.0509 27.673 9.68713 27.673 9.24029V5.16231C27.6732 5.03765 27.6442 4.91931 27.5948 4.81349ZM26.7231 9.10058H24.0618V5.30188H26.7232L26.7231 9.10058Z" fill="white"/>
        <path d="M29.9508 11.928V13.672C29.9508 13.9312 29.7407 14.1413 29.4815 14.1413H7.98057C7.72139 14.1413 7.51123 13.9312 7.51123 13.672V11.928C7.51123 11.6688 7.72139 11.4586 7.98057 11.4586H29.4815C29.7407 11.4586 29.9508 11.6687 29.9508 11.928Z" fill="url(#paint10_linear)"/>
        <path d="M22.2969 23.7432H13.0785L10.3761 21.0408C10.3754 21.0408 10.3754 21.0401 10.3746 21.0393C10.3607 21.0306 10.3468 21.0211 10.3336 21.0115C10.3322 21.0108 10.3308 21.0093 10.3293 21.0085C10.3175 20.999 10.3059 20.9895 10.2949 20.9807C10.281 20.9697 10.2686 20.958 10.2561 20.9455C10.2443 20.9345 10.2335 20.9236 10.2224 20.9119C10.2107 20.9001 10.2005 20.8877 10.1894 20.8753C10.1784 20.8629 10.1682 20.8497 10.1586 20.8358C10.1491 20.8226 10.1396 20.8087 10.1308 20.7948C10.1125 20.767 10.0964 20.7377 10.0817 20.7077C10.0678 20.6777 10.0546 20.6462 10.0444 20.614C10.0385 20.5979 10.0341 20.5818 10.0298 20.5657C10.0217 20.5372 10.0158 20.5086 10.0122 20.4793C10.01 20.4669 10.0078 20.4544 10.007 20.4413C10.0056 20.4303 10.0049 20.4186 10.0042 20.4069C10.0035 20.3915 10.0027 20.3762 10.0027 20.3608V16.2808C10.0027 15.8335 10.3665 15.4698 10.8137 15.4698H13.7532C13.7693 15.4698 13.7854 15.4705 13.8015 15.4713C13.8133 15.472 13.8249 15.4728 13.8359 15.4742C13.8484 15.475 13.86 15.4764 13.8725 15.4786C13.8871 15.4808 13.9018 15.483 13.9163 15.4866C13.931 15.4896 13.9457 15.4925 13.9595 15.4969C13.9764 15.5012 13.9925 15.5056 14.0086 15.5115C14.0408 15.5218 14.0723 15.5349 14.1023 15.5488C14.1323 15.5635 14.1615 15.5796 14.1894 15.5979C14.204 15.6066 14.2172 15.6162 14.2311 15.6265C14.2435 15.6352 14.256 15.6455 14.2684 15.655C14.2838 15.6675 14.2984 15.6806 14.3123 15.6945C14.3225 15.7041 14.3327 15.7143 14.3423 15.7246C14.3533 15.7356 14.3635 15.7473 14.3738 15.7589C14.3753 15.7611 14.3767 15.7633 14.3789 15.7655C14.3987 15.7896 14.417 15.8146 14.4331 15.8402C14.4331 15.8402 14.4345 15.8409 14.4345 15.8416L14.4126 15.8592L16.1839 17.6305L16.6699 18.1165L17.1157 18.5623L17.7408 19.1874L19.6256 21.0722L20.1124 21.559L22.2969 23.7432Z" fill="url(#paint11_linear)"/>
        <path d="M13.7536 20.6946H10.8135C10.6281 20.6946 10.4778 20.5443 10.4778 20.3588V16.281C10.4778 16.0955 10.628 15.9452 10.8135 15.9452H13.7536C13.939 15.9452 14.0893 16.0955 14.0893 16.281V20.3588C14.0893 20.5443 13.939 20.6946 13.7536 20.6946Z" fill="#503837"/>
        <path d="M14.486 15.9323C14.4711 15.9009 14.4539 15.8704 14.435 15.8413L14.4335 15.8406C14.417 15.8147 14.3989 15.7896 14.3794 15.7653C14.3771 15.7638 14.3755 15.7614 14.3739 15.7591C14.3637 15.7473 14.3535 15.7356 14.3426 15.7246C14.3331 15.7143 14.3229 15.7042 14.3127 15.6947C14.2986 15.6806 14.2837 15.6673 14.2689 15.6548C14.2563 15.6454 14.2438 15.6352 14.2313 15.6265C14.2171 15.6163 14.2045 15.6069 14.1897 15.5975C14.1622 15.5795 14.1325 15.5638 14.1027 15.5489C14.0728 15.5348 14.0408 15.5214 14.0086 15.5113C13.9929 15.5058 13.9764 15.501 13.9599 15.4972C13.9458 15.4925 13.9309 15.4894 13.9168 15.487C13.9019 15.483 13.887 15.4807 13.8729 15.4784C13.8604 15.4761 13.8487 15.4753 13.8361 15.4745C13.8251 15.4729 13.8134 15.4721 13.8016 15.4714C13.7859 15.4706 13.7694 15.4698 13.7529 15.4698H10.8134C10.3665 15.4698 10.0028 15.8335 10.0028 16.2812V20.3612C10.0028 20.3762 10.0036 20.3918 10.0044 20.4067C10.0051 20.4185 10.0059 20.4302 10.0067 20.4413C10.0074 20.4546 10.0098 20.4671 10.0122 20.4797C10.0161 20.5087 10.0216 20.5377 10.0294 20.5659C10.0341 20.5824 10.0388 20.5981 10.0443 20.6145C10.0545 20.6466 10.0678 20.6781 10.0819 20.7078C10.096 20.7376 10.1125 20.7674 10.1306 20.7949C10.1391 20.809 10.1494 20.8231 10.1588 20.8364C10.1683 20.8498 10.1784 20.8631 10.1894 20.8756C10.2004 20.8882 10.2106 20.9006 10.2223 20.9124C10.2333 20.9242 10.2443 20.9351 10.256 20.9462C10.2686 20.958 10.281 20.9697 10.2944 20.9807C10.3054 20.9901 10.3171 20.9995 10.3289 21.009C10.3305 21.0097 10.332 21.0113 10.3336 21.0121C10.347 21.0215 10.3603 21.0309 10.3743 21.0396C10.3751 21.0403 10.3751 21.0411 10.3759 21.0411C10.5021 21.1234 10.6518 21.1696 10.8133 21.1696H13.7528C14.2005 21.1696 14.5642 20.8059 14.5642 20.3591V16.2813C14.5643 16.1565 14.5361 16.0381 14.486 15.9323ZM13.6143 20.2193H10.953V16.4206H13.6143V20.2193Z" fill="white"/>
        <path d="M28.8511 23.7432H19.6328L16.9304 21.0408C16.9297 21.0408 16.9297 21.0401 16.929 21.0393C16.915 21.0306 16.9011 21.0211 16.888 21.0115C16.8865 21.0108 16.8851 21.0093 16.8836 21.0085C16.8719 20.999 16.8602 20.9895 16.8492 20.9807C16.8353 20.9697 16.8229 20.958 16.8104 20.9455C16.7987 20.9345 16.7878 20.9236 16.7767 20.9119C16.765 20.9001 16.7548 20.8877 16.7438 20.8753C16.7327 20.8629 16.7225 20.8497 16.713 20.8358C16.7034 20.8226 16.6939 20.8087 16.6851 20.7948C16.6668 20.767 16.6507 20.7377 16.636 20.7077C16.6221 20.6777 16.6089 20.6462 16.5987 20.614C16.5929 20.5979 16.5884 20.5818 16.5841 20.5657C16.5761 20.5372 16.5702 20.5086 16.5665 20.4793C16.5643 20.4669 16.5621 20.4544 16.5614 20.4413C16.5599 20.4303 16.5592 20.4186 16.5585 20.4069C16.5578 20.3915 16.557 20.3762 16.557 20.3608V16.2808C16.557 15.8335 16.9208 15.4698 17.368 15.4698H20.3075C20.3236 15.4698 20.3397 15.4705 20.3558 15.4713C20.3676 15.472 20.3793 15.4728 20.3902 15.4742C20.4027 15.475 20.4144 15.4764 20.4268 15.4786C20.4414 15.4808 20.4561 15.483 20.4707 15.4866C20.4853 15.4896 20.5 15.4925 20.5138 15.4969C20.5307 15.5012 20.5468 15.5056 20.5629 15.5115C20.5951 15.5218 20.6266 15.5349 20.6566 15.5488C20.6866 15.5635 20.7159 15.5796 20.7437 15.5979C20.7583 15.6066 20.7715 15.6162 20.7854 15.6265C20.7978 15.6352 20.8103 15.6455 20.8227 15.655C20.8381 15.6675 20.8527 15.6806 20.8666 15.6945C20.8769 15.7041 20.8871 15.7143 20.8966 15.7246C20.9076 15.7356 20.9179 15.7473 20.9281 15.7589C20.9296 15.7611 20.931 15.7633 20.9333 15.7655C20.953 15.7896 20.9713 15.8146 20.9874 15.8402C20.9874 15.8402 20.9889 15.8409 20.9889 15.8416L20.9669 15.8592L22.7383 17.6305L23.2242 18.1165L23.67 18.5623L24.2952 19.1874L26.18 21.0722L26.6667 21.559L28.8511 23.7432Z" fill="url(#paint12_linear)"/>
        <path d="M20.3079 20.6946H17.3678C17.1824 20.6946 17.0321 20.5443 17.0321 20.3588V16.281C17.0321 16.0955 17.1824 15.9452 17.3678 15.9452H20.3079C20.4933 15.9452 20.6436 16.0955 20.6436 16.281V20.3588C20.6436 20.5443 20.4933 20.6946 20.3079 20.6946Z" fill="#503837"/>
        <path d="M21.0415 15.9338C21.0415 15.933 21.0407 15.933 21.0407 15.9323C21.025 15.9009 21.0078 15.8704 20.989 15.8413L20.9874 15.8406C20.9717 15.8147 20.9529 15.7896 20.9333 15.7653C20.931 15.7638 20.9302 15.7614 20.9286 15.7591C20.9184 15.7473 20.9082 15.7356 20.8973 15.7246C20.8871 15.7143 20.8769 15.7042 20.8667 15.6947C20.8533 15.6806 20.8384 15.6673 20.8228 15.6548C20.8102 15.6454 20.7978 15.6352 20.786 15.6265C20.7718 15.6163 20.7585 15.6069 20.7436 15.5975C20.7161 15.5795 20.6872 15.5638 20.6566 15.5489C20.6268 15.5348 20.5955 15.5214 20.5633 15.5113C20.5469 15.5058 20.5312 15.501 20.5139 15.4972C20.4998 15.4925 20.4857 15.4894 20.4708 15.487C20.4559 15.483 20.4418 15.4807 20.4269 15.4784C20.4144 15.4761 20.4027 15.4753 20.3901 15.4745C20.3791 15.4729 20.3674 15.4721 20.3556 15.4714C20.3399 15.4706 20.3234 15.4698 20.3078 15.4698H17.3682C16.9206 15.4698 16.5569 15.8335 16.5569 16.2812V20.3612C16.5569 20.3762 16.5577 20.3918 16.5584 20.4067C16.5592 20.4185 16.56 20.4302 16.5615 20.4413C16.5623 20.4546 16.5646 20.4671 16.5662 20.4797C16.5702 20.5087 16.5764 20.5377 16.5842 20.5659C16.5882 20.5824 16.5928 20.5981 16.5984 20.6145C16.6093 20.6466 16.6219 20.6781 16.636 20.7078C16.6509 20.7376 16.6666 20.7674 16.6854 20.7949C16.694 20.809 16.7034 20.8231 16.7129 20.8364C16.7223 20.8498 16.7325 20.8631 16.7435 20.8756C16.7545 20.8882 16.7647 20.9006 16.7764 20.9124C16.7874 20.9242 16.7983 20.9351 16.8101 20.9462C16.8227 20.958 16.8352 20.9697 16.8493 20.9807C16.8603 20.9901 16.872 20.9995 16.8838 21.009C16.8854 21.0097 16.8862 21.0113 16.8878 21.0121C16.9011 21.0215 16.9153 21.0309 16.9293 21.0396C16.9301 21.0403 16.9301 21.0411 16.9301 21.0411C17.0563 21.1234 17.206 21.1696 17.3683 21.1696H20.3078C20.7547 21.1696 21.1184 20.8059 21.1184 20.3591V16.2813C21.1183 16.1573 21.0901 16.0389 21.0415 15.9338ZM20.1683 20.2193H17.5069V16.4206H20.1682V20.2193H20.1683Z" fill="white"/>
        <path d="M29.3993 17.7376V23.7429H26.187L23.485 21.0409C23.4842 21.0409 23.4842 21.0401 23.4834 21.0393C23.4693 21.0308 23.4552 21.0213 23.4427 21.0119C23.4412 21.0111 23.4396 21.0095 23.438 21.0088C23.4262 20.9993 23.4145 20.9899 23.4035 20.9805C23.3893 20.9695 23.3777 20.9578 23.3651 20.946C23.3533 20.935 23.3424 20.924 23.3313 20.9122C23.3195 20.9005 23.3094 20.888 23.2984 20.8754C23.2875 20.8628 23.2773 20.8495 23.2678 20.8362C23.2576 20.8229 23.2482 20.8087 23.2396 20.7947C23.2216 20.7672 23.2051 20.7374 23.1901 20.7076C23.1768 20.6778 23.1635 20.6465 23.1533 20.6143C23.147 20.5979 23.1431 20.5822 23.1384 20.5657C23.1306 20.5375 23.1243 20.5085 23.1212 20.4794C23.1188 20.4669 23.1165 20.4544 23.1157 20.4411C23.1141 20.4301 23.1134 20.4183 23.1126 20.4065C23.1126 20.3916 23.1118 20.3759 23.1118 20.361V16.2809C23.1118 15.8333 23.4755 15.4696 23.9224 15.4696H26.8619C26.8784 15.4696 26.8941 15.4704 26.9106 15.4712C26.9223 15.4719 26.9341 15.4727 26.9451 15.4742C26.9577 15.475 26.9694 15.4758 26.9812 15.4782C26.9961 15.4805 27.011 15.4829 27.0251 15.4868C27.04 15.4891 27.0549 15.4922 27.0689 15.497C27.0854 15.5008 27.1018 15.5055 27.1175 15.5111C27.1497 15.5213 27.1811 15.5346 27.2116 15.5487C27.2414 15.5636 27.2704 15.5793 27.2986 15.5973C27.3128 15.6067 27.3261 15.6161 27.3402 15.6263C27.3528 15.6349 27.3652 15.6452 27.3778 15.6546C27.3927 15.6672 27.4076 15.6804 27.4217 15.6945C27.4319 15.704 27.4421 15.7142 27.4515 15.7243C27.4625 15.7353 27.4727 15.7471 27.4829 15.7589C27.4844 15.7612 27.486 15.7636 27.4883 15.7651C27.508 15.7894 27.526 15.8145 27.5424 15.8404L27.544 15.8411L27.522 15.8591L27.5949 15.9321L29.2928 17.6307L29.3993 17.7376Z" fill="url(#paint13_linear)"/>
        <path d="M26.8622 20.6946H23.9222C23.7368 20.6946 23.5864 20.5443 23.5864 20.3588V16.281C23.5864 16.0955 23.7367 15.9452 23.9222 15.9452H26.8622C27.0476 15.9452 27.198 16.0955 27.198 16.281V20.3588C27.198 20.5443 27.0477 20.6946 26.8622 20.6946Z" fill="#503837"/>
        <path d="M27.5948 15.9323C27.5791 15.9009 27.5626 15.8704 27.5438 15.8413L27.5423 15.8406C27.5258 15.8147 27.5077 15.7896 27.4882 15.7653C27.4859 15.7638 27.4843 15.7614 27.4827 15.7591C27.4724 15.7473 27.4623 15.7356 27.4513 15.7246C27.4419 15.7143 27.4317 15.7042 27.4215 15.6947C27.4074 15.6806 27.3925 15.6673 27.3776 15.6548C27.3651 15.6454 27.3526 15.6352 27.34 15.6265C27.3259 15.6163 27.3125 15.6069 27.2985 15.5975C27.2702 15.5795 27.2412 15.5638 27.2114 15.5489C27.1808 15.5348 27.1496 15.5214 27.1174 15.5113C27.1017 15.5058 27.0852 15.501 27.0688 15.4972C27.0546 15.4925 27.0397 15.4894 27.0249 15.487C27.0108 15.483 26.9959 15.4807 26.981 15.4784C26.9693 15.4761 26.9575 15.4753 26.9449 15.4745C26.934 15.4729 26.9222 15.4721 26.9104 15.4714C26.894 15.4706 26.8783 15.4698 26.8618 15.4698H23.9221C23.4753 15.4698 23.1116 15.8335 23.1116 16.2812V20.3612C23.1116 20.3762 23.1123 20.3918 23.1123 20.4067C23.1131 20.4185 23.1139 20.4302 23.1154 20.4413C23.1162 20.4546 23.1185 20.4671 23.1209 20.4797C23.124 20.5087 23.1303 20.5377 23.1381 20.5659C23.1429 20.5824 23.1467 20.5981 23.1531 20.6145C23.1633 20.6466 23.1765 20.6781 23.1899 20.7078C23.2048 20.7376 23.2213 20.7674 23.2393 20.7949C23.2479 20.809 23.2573 20.8231 23.2676 20.8364C23.277 20.8498 23.2872 20.8631 23.2982 20.8756C23.3092 20.8882 23.3193 20.9006 23.3311 20.9124C23.3421 20.9242 23.353 20.9351 23.3648 20.9462C23.3774 20.958 23.3891 20.9697 23.4032 20.9807C23.4142 20.9901 23.4259 20.9995 23.4378 21.009C23.4393 21.0097 23.4408 21.0113 23.4425 21.0121C23.455 21.0215 23.4691 21.0309 23.4832 21.0396C23.4839 21.0403 23.4839 21.0411 23.4847 21.0411C23.6102 21.1234 23.7606 21.1696 23.9221 21.1696H26.8617C27.3093 21.1696 27.673 20.8059 27.673 20.3591V16.2813C27.6732 16.1565 27.6442 16.0381 27.5948 15.9323ZM26.7231 20.2193H24.0618V16.4206H26.7232L26.7231 20.2193Z" fill="white"/>
        <path d="M29.9508 23.0468V24.7908C29.9508 25.05 29.7407 25.2602 29.4815 25.2602H7.98057C7.72139 25.2602 7.51123 25.05 7.51123 24.7908V23.0468C7.51123 22.7876 7.72139 22.5775 7.98057 22.5775H29.4815C29.7407 22.5774 29.9508 22.7876 29.9508 23.0468Z" fill="url(#paint14_linear)"/>
        <path d="M22.2969 34.862H13.0785L10.3761 32.1597C10.3754 32.1597 10.3754 32.159 10.3746 32.1582C10.3607 32.1494 10.3468 32.1399 10.3336 32.1303C10.3322 32.1296 10.3308 32.1282 10.3293 32.1274C10.3175 32.1178 10.3059 32.1083 10.2949 32.0995C10.281 32.0885 10.2686 32.0768 10.2561 32.0644C10.2443 32.0533 10.2335 32.0424 10.2224 32.0307C10.2107 32.019 10.2005 32.0066 10.1894 31.9941C10.1784 31.9817 10.1682 31.9685 10.1586 31.9546C10.1491 31.9414 10.1396 31.9276 10.1308 31.9136C10.1125 31.8858 10.0964 31.8565 10.0817 31.8265C10.0678 31.7965 10.0546 31.7651 10.0444 31.7329C10.0385 31.7168 10.0341 31.7007 10.0298 31.6846C10.0217 31.656 10.0158 31.6275 10.0122 31.5981C10.01 31.5857 10.0078 31.5732 10.007 31.5601C10.0056 31.5491 10.0049 31.5375 10.0042 31.5257C10.0035 31.5103 10.0027 31.495 10.0027 31.4796V27.3996C10.0027 26.9524 10.3665 26.5887 10.8137 26.5887H13.7532C13.7693 26.5887 13.7854 26.5894 13.8015 26.5901C13.8133 26.5908 13.8249 26.5916 13.8359 26.5931C13.8484 26.5938 13.86 26.5953 13.8725 26.5974C13.8871 26.5996 13.9018 26.6018 13.9163 26.6055C13.931 26.6084 13.9457 26.6113 13.9595 26.6157C13.9764 26.6201 13.9925 26.6244 14.0086 26.6304C14.0408 26.6406 14.0723 26.6538 14.1023 26.6677C14.1323 26.6823 14.1615 26.6984 14.1894 26.7168C14.204 26.7255 14.2172 26.735 14.2311 26.7453C14.2435 26.754 14.256 26.7644 14.2684 26.7739C14.2838 26.7863 14.2984 26.7995 14.3123 26.8134C14.3225 26.8229 14.3327 26.8331 14.3423 26.8434C14.3533 26.8544 14.3635 26.8661 14.3738 26.8778C14.3753 26.88 14.3767 26.8821 14.3789 26.8843C14.3987 26.9084 14.417 26.9334 14.4331 26.959C14.4331 26.959 14.4345 26.9597 14.4345 26.9605L14.4126 26.978L16.1839 28.7494L16.6699 29.2354L17.1157 29.6811L17.7408 30.3063L19.6256 32.1911L20.1124 32.6779L22.2969 34.862Z" fill="url(#paint15_linear)"/>
        <path d="M13.7536 31.8134H10.8135C10.6281 31.8134 10.4778 31.6632 10.4778 31.4777V27.3998C10.4778 27.2144 10.628 27.0641 10.8135 27.0641H13.7536C13.939 27.0641 14.0893 27.2143 14.0893 27.3998V31.4777C14.0893 31.663 13.939 31.8134 13.7536 31.8134Z" fill="#503837"/>
        <path d="M14.486 27.051C14.4711 27.0197 14.4539 26.9892 14.435 26.9601L14.4335 26.9593C14.417 26.9335 14.3989 26.9084 14.3794 26.8841C14.3771 26.8826 14.3755 26.8802 14.3739 26.8779C14.3637 26.8661 14.3535 26.8544 14.3426 26.8433C14.3331 26.8331 14.3229 26.8229 14.3127 26.8135C14.2986 26.7994 14.2837 26.786 14.2689 26.7736C14.2563 26.7642 14.2438 26.754 14.2313 26.7453C14.2171 26.7351 14.2045 26.7257 14.1897 26.7163C14.1622 26.6983 14.1325 26.6826 14.1027 26.6677C14.0728 26.6536 14.0408 26.6402 14.0086 26.6301C13.9929 26.6246 13.9764 26.6198 13.9599 26.6159C13.9458 26.6112 13.9309 26.6081 13.9168 26.6057C13.9019 26.6018 13.887 26.5995 13.8729 26.5972C13.8604 26.5948 13.8487 26.5941 13.8361 26.5932C13.8251 26.5917 13.8134 26.5909 13.8016 26.5901C13.7859 26.5894 13.7694 26.5886 13.7529 26.5886H10.8134C10.3665 26.5886 10.0028 26.9523 10.0028 27.3999V31.48C10.0028 31.4949 10.0036 31.5106 10.0044 31.5255C10.0051 31.5373 10.0059 31.549 10.0067 31.56C10.0074 31.5734 10.0098 31.5859 10.0122 31.5984C10.0161 31.6275 10.0216 31.6564 10.0294 31.6847C10.0341 31.7012 10.0388 31.7168 10.0443 31.7333C10.0545 31.7654 10.0678 31.7969 10.0819 31.8266C10.096 31.8564 10.1125 31.8861 10.1306 31.9136C10.1391 31.9278 10.1494 31.9419 10.1588 31.9552C10.1683 31.9685 10.1784 31.9818 10.1894 31.9944C10.2004 32.0069 10.2106 32.0194 10.2223 32.0312C10.2333 32.043 10.2443 32.0539 10.256 32.065C10.2686 32.0768 10.281 32.0884 10.2944 32.0995C10.3054 32.1089 10.3171 32.1183 10.3289 32.1277C10.3305 32.1285 10.332 32.1301 10.3336 32.1308C10.347 32.1403 10.3603 32.1497 10.3743 32.1583C10.3751 32.1591 10.3751 32.1599 10.3759 32.1599C10.5021 32.2422 10.6518 32.2884 10.8133 32.2884H13.7528C14.2005 32.2884 14.5642 31.9247 14.5642 31.4778V27.4001C14.5643 27.2752 14.5361 27.1569 14.486 27.051ZM13.6143 31.3381H10.953V27.5394H13.6143V31.3381Z" fill="white"/>
        <path d="M29.3993 28.8563V34.8617H26.187L23.485 32.1596C23.4842 32.1596 23.4842 32.1589 23.4834 32.1581C23.4693 32.1495 23.4552 32.14 23.4427 32.1306C23.4412 32.1298 23.4396 32.1283 23.438 32.1275C23.4262 32.1181 23.4145 32.1087 23.4035 32.0992C23.3893 32.0882 23.3777 32.0765 23.3651 32.0647C23.3533 32.0537 23.3424 32.0428 23.3313 32.031C23.3195 32.0192 23.3094 32.0067 23.2984 31.9941C23.2875 31.9815 23.2773 31.9682 23.2678 31.9549C23.2576 31.9416 23.2482 31.9275 23.2396 31.9134C23.2216 31.8859 23.2051 31.8562 23.1901 31.8263C23.1768 31.7965 23.1635 31.7652 23.1533 31.733C23.147 31.7166 23.1431 31.7009 23.1384 31.6845C23.1306 31.6562 23.1243 31.6272 23.1212 31.5982C23.1188 31.5856 23.1165 31.5732 23.1157 31.5598C23.1141 31.5488 23.1134 31.5371 23.1126 31.5253C23.1126 31.5104 23.1118 31.4947 23.1118 31.4798V27.3997C23.1118 26.9521 23.4755 26.5883 23.9224 26.5883H26.8619C26.8784 26.5883 26.8941 26.5891 26.9106 26.5899C26.9223 26.5907 26.9341 26.5914 26.9451 26.593C26.9577 26.5938 26.9694 26.5945 26.9812 26.5969C26.9961 26.5992 27.011 26.6016 27.0251 26.6055C27.04 26.6078 27.0549 26.611 27.0689 26.6157C27.0854 26.6196 27.1018 26.6243 27.1175 26.6298C27.1497 26.64 27.1811 26.6533 27.2116 26.6674C27.2414 26.6824 27.2704 26.698 27.2986 26.716C27.3128 26.7255 27.3261 26.7349 27.3402 26.7451C27.3528 26.7537 27.3652 26.7639 27.3778 26.7733C27.3927 26.7859 27.4076 26.7991 27.4217 26.8133C27.4319 26.8227 27.4421 26.8329 27.4515 26.8431C27.4625 26.8541 27.4727 26.8658 27.4829 26.8776C27.4844 26.8799 27.486 26.8823 27.4883 26.8839C27.508 26.9081 27.526 26.9332 27.5424 26.9591L27.544 26.9599L27.522 26.9779L27.5949 27.0508L29.2928 28.7495L29.3993 28.8563Z" fill="url(#paint16_linear)"/>
        <path d="M26.8622 31.8134H23.9222C23.7368 31.8134 23.5864 31.6632 23.5864 31.4777V27.3998C23.5864 27.2144 23.7367 27.0641 23.9222 27.0641H26.8622C27.0476 27.0641 27.198 27.2143 27.198 27.3998V31.4777C27.198 31.663 27.0477 31.8134 26.8622 31.8134Z" fill="#503837"/>
        <path d="M27.5948 27.051C27.5791 27.0197 27.5626 26.9892 27.5438 26.9601L27.5423 26.9593C27.5258 26.9335 27.5077 26.9084 27.4882 26.8841C27.4859 26.8826 27.4843 26.8802 27.4827 26.8779C27.4724 26.8661 27.4623 26.8544 27.4513 26.8433C27.4419 26.8331 27.4317 26.8229 27.4215 26.8135C27.4074 26.7994 27.3925 26.786 27.3776 26.7736C27.3651 26.7642 27.3526 26.754 27.34 26.7453C27.3259 26.7351 27.3125 26.7257 27.2985 26.7163C27.2702 26.6983 27.2412 26.6826 27.2114 26.6677C27.1808 26.6536 27.1496 26.6402 27.1174 26.6301C27.1017 26.6246 27.0852 26.6198 27.0688 26.6159C27.0546 26.6112 27.0397 26.6081 27.0249 26.6057C27.0108 26.6018 26.9959 26.5995 26.981 26.5972C26.9693 26.5948 26.9575 26.5941 26.9449 26.5932C26.934 26.5917 26.9222 26.5909 26.9104 26.5901C26.894 26.5894 26.8783 26.5886 26.8618 26.5886H23.9221C23.4753 26.5886 23.1116 26.9523 23.1116 27.3999V31.48C23.1116 31.4949 23.1123 31.5106 23.1123 31.5255C23.1131 31.5373 23.1139 31.549 23.1154 31.56C23.1162 31.5734 23.1185 31.5859 23.1209 31.5984C23.124 31.6275 23.1303 31.6564 23.1381 31.6847C23.1429 31.7012 23.1467 31.7168 23.1531 31.7333C23.1633 31.7654 23.1765 31.7969 23.1899 31.8266C23.2048 31.8564 23.2213 31.8861 23.2393 31.9136C23.2479 31.9278 23.2573 31.9419 23.2676 31.9552C23.277 31.9686 23.2872 31.9818 23.2982 31.9944C23.3092 32.0069 23.3193 32.0194 23.3311 32.0312C23.3421 32.043 23.353 32.0539 23.3648 32.065C23.3774 32.0768 23.3891 32.0884 23.4032 32.0995C23.4142 32.1089 23.4259 32.1183 23.4378 32.1277C23.4393 32.1285 23.4408 32.1301 23.4425 32.1308C23.455 32.1403 23.4691 32.1497 23.4832 32.1583C23.4839 32.1591 23.4839 32.1599 23.4847 32.1599C23.6102 32.2422 23.7606 32.2884 23.9221 32.2884H26.8617C27.3093 32.2884 27.673 31.9247 27.673 31.4778V27.4001C27.6732 27.2752 27.6442 27.1569 27.5948 27.051ZM26.7231 31.3381H24.0618V27.5394H26.7232L26.7231 31.3381Z" fill="white"/>
        <path d="M16.2878 36.3398V28.253C16.2878 27.688 16.7458 27.23 17.3108 27.23H20.1513C20.7163 27.23 21.1743 27.688 21.1743 28.253V36.3398H16.2878Z" fill="#FFBF5C"/>
        <path d="M21.7794 36.3398H20.5694V28.6017C20.5694 28.18 20.2244 27.835 19.8027 27.835H17.6596C17.2361 27.835 16.8929 28.1782 16.8929 28.6017V36.3398H15.6829V27.8015C15.6829 27.1518 16.2096 26.625 16.8594 26.625H20.6029C21.2526 26.625 21.7794 27.1517 21.7794 27.8015V36.3398Z" fill="#FFE7A5"/>
        <path d="M17.8642 32.5892C18.169 32.5892 18.416 32.3422 18.416 32.0375C18.416 31.7328 18.169 31.4857 17.8642 31.4857C17.5595 31.4857 17.3125 31.7328 17.3125 32.0375C17.3125 32.3422 17.5595 32.5892 17.8642 32.5892Z" fill="white"/>
        <path d="M8.99014 35.0073C8.99014 35.4779 8.90105 35.9271 8.73856 36.3399H1.96142C1.79892 35.9271 1.70984 35.4779 1.70984 35.0073C1.70984 34.5491 1.79435 34.1109 1.94904 33.7073C2.47231 32.3383 3.79777 31.3672 5.34999 31.3672C6.90221 31.3672 8.22767 32.3384 8.75093 33.7073C8.90569 34.1109 8.99014 34.5491 8.99014 35.0073Z" fill="url(#paint17_linear)"/>
        <path d="M11.3374 35.3732C11.3374 35.7145 11.2728 36.0404 11.155 36.3398H6.23874C6.12082 36.0404 6.05627 35.7145 6.05627 35.3732C6.05627 35.0408 6.11752 34.7229 6.22981 34.4301C6.60935 33.4371 7.57087 32.7327 8.69686 32.7327C9.82284 32.7327 10.7844 33.4371 11.1639 34.4301C11.2761 34.7229 11.3374 35.0407 11.3374 35.3732Z" fill="url(#paint18_linear)"/>
        </g>
        <defs>
        <linearGradient id="paint0_linear" x1="25.858" y1="29.1575" x2="30.6262" y2="33.9263" gradientUnits="userSpaceOnUse">
        <stop stop-color="#9EB644"/>
        <stop offset="1" stop-color="#738611"/>
        </linearGradient>
        <linearGradient id="paint1_linear" x1="29.0616" y1="32.1111" x2="34.3401" y2="37.3888" gradientUnits="userSpaceOnUse">
        <stop stop-color="#9EB644"/>
        <stop offset="1" stop-color="#738611"/>
        </linearGradient>
        <linearGradient id="paint2_linear" x1="18.7309" y1="10.6258" x2="18.7309" y2="66.6117" gradientUnits="userSpaceOnUse">
        <stop stop-color="#FF931E"/>
        <stop offset="1" stop-color="#FF5D00"/>
        </linearGradient>
        <linearGradient id="paint3_linear" x1="18.7307" y1="6.47111" x2="18.7307" y2="0.104678" gradientUnits="userSpaceOnUse">
        <stop stop-color="#FF5D00" stop-opacity="0"/>
        <stop offset="1" stop-color="#D54003"/>
        </linearGradient>
        <linearGradient id="paint4_linear" x1="18.7307" y1="17.4904" x2="18.7307" y2="11.1242" gradientUnits="userSpaceOnUse">
        <stop stop-color="#FF5D00" stop-opacity="0"/>
        <stop offset="1" stop-color="#D54003"/>
        </linearGradient>
        <linearGradient id="paint5_linear" x1="18.7307" y1="28.5104" x2="18.7307" y2="22.1435" gradientUnits="userSpaceOnUse">
        <stop stop-color="#FF5D00" stop-opacity="0"/>
        <stop offset="1" stop-color="#D54003"/>
        </linearGradient>
        <linearGradient id="paint6_linear" x1="18.7306" y1="0.6258" x2="18.7306" y2="4.18478" gradientUnits="userSpaceOnUse">
        <stop stop-color="#FFE7A5"/>
        <stop offset="0.966" stop-color="#FFBF5C"/>
        </linearGradient>
        <linearGradient id="paint7_linear" x1="15.7653" y1="10.6831" x2="8.88094" y2="3.7991" gradientUnits="userSpaceOnUse">
        <stop stop-color="#FF5D00" stop-opacity="0"/>
        <stop offset="1" stop-color="#D54003"/>
        </linearGradient>
        <linearGradient id="paint8_linear" x1="22.3191" y1="10.6831" x2="15.4355" y2="3.79917" gradientUnits="userSpaceOnUse">
        <stop stop-color="#FF5D00" stop-opacity="0"/>
        <stop offset="1" stop-color="#D54003"/>
        </linearGradient>
        <linearGradient id="paint9_linear" x1="27.1371" y1="8.94631" x2="22.311" y2="4.1203" gradientUnits="userSpaceOnUse">
        <stop stop-color="#FF5D00" stop-opacity="0"/>
        <stop offset="1" stop-color="#D54003"/>
        </linearGradient>
        <linearGradient id="paint10_linear" x1="18.7306" y1="11.7446" x2="18.7306" y2="15.3036" gradientUnits="userSpaceOnUse">
        <stop stop-color="#FFE7A5"/>
        <stop offset="0.966" stop-color="#FFBF5C"/>
        </linearGradient>
        <linearGradient id="paint11_linear" x1="15.7653" y1="21.8018" x2="8.88098" y2="14.9175" gradientUnits="userSpaceOnUse">
        <stop stop-color="#FF5D00" stop-opacity="0"/>
        <stop offset="1" stop-color="#D54003"/>
        </linearGradient>
        <linearGradient id="paint12_linear" x1="22.3191" y1="21.8019" x2="15.4355" y2="14.9176" gradientUnits="userSpaceOnUse">
        <stop stop-color="#FF5D00" stop-opacity="0"/>
        <stop offset="1" stop-color="#D54003"/>
        </linearGradient>
        <linearGradient id="paint13_linear" x1="27.137" y1="20.0645" x2="22.311" y2="15.2392" gradientUnits="userSpaceOnUse">
        <stop stop-color="#FF5D00" stop-opacity="0"/>
        <stop offset="1" stop-color="#D54003"/>
        </linearGradient>
        <linearGradient id="paint14_linear" x1="18.7306" y1="22.8634" x2="18.7306" y2="26.4217" gradientUnits="userSpaceOnUse">
        <stop stop-color="#FFE7A5"/>
        <stop offset="0.966" stop-color="#FFBF5C"/>
        </linearGradient>
        <linearGradient id="paint15_linear" x1="15.7652" y1="32.92" x2="8.8809" y2="26.0364" gradientUnits="userSpaceOnUse">
        <stop stop-color="#FF5D00" stop-opacity="0"/>
        <stop offset="1" stop-color="#D54003"/>
        </linearGradient>
        <linearGradient id="paint16_linear" x1="27.137" y1="31.1833" x2="22.311" y2="26.3573" gradientUnits="userSpaceOnUse">
        <stop stop-color="#FF5D00" stop-opacity="0"/>
        <stop offset="1" stop-color="#D54003"/>
        </linearGradient>
        <linearGradient id="paint17_linear" x1="3.29699" y1="32.7413" x2="7.78913" y2="37.2327" gradientUnits="userSpaceOnUse">
        <stop stop-color="#9EB644"/>
        <stop offset="1" stop-color="#738611"/>
        </linearGradient>
        <linearGradient id="paint18_linear" x1="7.20756" y1="33.7293" x2="10.4658" y2="36.9876" gradientUnits="userSpaceOnUse">
        <stop stop-color="#9EB644"/>
        <stop offset="1" stop-color="#738611"/>
        </linearGradient>
        <clipPath id="clip0">
        <rect width="36" height="36" fill="white" transform="translate(0.730957 0.339844)"/>
        </clipPath>
        </defs>

    </symbol>   

    <symbol id="mens-chair" viewBox="0 0 37 37">
        <g clip-path="url(#clip0)">
        <path d="M6.90128 26.1384C6.35785 26.1384 5.85328 25.7904 5.67923 25.245C5.46383 24.5699 5.83639 23.8479 6.51148 23.6325L11.0246 22.1922L11.3327 21.1504L13.0255 20.7396L13.7838 21.9112L13.2927 23.5719C13.1721 23.9795 12.8574 24.3011 12.4524 24.4303L7.29172 26.0773C7.16198 26.1187 7.03054 26.1384 6.90128 26.1384Z" fill="#FFB69E"/>
        <path d="M13.7836 21.9111L14.6651 18.9308C14.866 18.2513 14.4781 17.5374 13.7985 17.3365C13.1189 17.1355 12.4052 17.5235 12.2042 18.203L11.3325 21.1505L13.7836 21.9111Z" fill="#4699F2"/>
        <path d="M18.4746 36.7363C17.9868 36.7363 17.5913 36.3409 17.5913 35.853V30.3562H14.1146V35.853C14.1146 36.3409 13.7191 36.7363 13.2312 36.7363C12.7434 36.7363 12.3479 36.3409 12.3479 35.853V29.4728C12.3479 28.9849 12.7434 28.5895 13.2312 28.5895H18.4746C18.9625 28.5895 19.358 28.9849 19.358 29.4728V35.853C19.358 36.3409 18.9625 36.7363 18.4746 36.7363Z" fill="#965028"/>
        <path d="M32.5347 36.7364C31.7542 36.7364 31.0472 36.2025 30.8596 35.41L29.2611 28.6576C29.2303 28.5276 29.2148 28.3944 29.2148 28.2608V21.242C29.2148 20.2904 29.9862 19.5191 30.9377 19.5191C31.8893 19.5191 32.6606 20.2904 32.6606 21.242V28.0596L34.2127 34.6163C34.432 35.5422 33.859 36.4705 32.9331 36.6897C32.7995 36.7212 32.666 36.7364 32.5347 36.7364Z" fill="#FFB69E"/>
        <path d="M25.6758 36.7363C25.651 36.7363 25.6262 36.7358 25.6012 36.7348C24.6505 36.6943 23.9127 35.8908 23.9533 34.9401L24.2629 27.6726C24.2682 27.5483 24.2869 27.425 24.3188 27.3048L26.0416 20.8011C26.2852 19.8813 27.2283 19.3333 28.1483 19.5769C29.0681 19.8206 29.6161 20.7637 29.3725 21.6835L27.6976 28.0063L27.3958 35.0868C27.3565 36.0125 26.5935 36.7363 25.6758 36.7363Z" fill="#FFB69E"/>
        <path d="M3.94308 36.7363C3.71631 36.7363 3.486 36.688 3.26693 36.5859C2.46394 36.212 2.11618 35.2578 2.49022 34.4548L6.30628 26.262C6.52888 25.7841 6.97204 25.4461 7.49173 25.3579L15.1625 24.0556C16.0354 23.9075 16.864 24.4951 17.0122 25.3684C17.1605 26.2417 16.5727 27.0699 15.6993 27.2182L8.85858 28.3795L5.39799 35.8092C5.12613 36.3932 4.54736 36.7363 3.94308 36.7363Z" fill="#414B82"/>
        <path d="M10.6443 36.7363C9.89262 36.7364 9.2217 36.2054 9.07196 35.4399L7.72539 28.5544C7.63931 28.1142 7.74143 27.6582 8.007 27.2968C8.27256 26.9354 8.67735 26.7017 9.12312 26.6523L17.6789 25.706C18.5596 25.6083 19.3519 26.2434 19.4494 27.1238C19.5467 28.0042 18.912 28.7969 18.0315 28.8943L11.208 29.649L12.2201 34.8241C12.3901 35.6935 11.8231 36.5361 10.9538 36.706C10.85 36.7266 10.7464 36.7363 10.6443 36.7363Z" fill="#5F6E9B"/>
        <path d="M19.5482 17.9754C19.0461 17.9754 18.5644 17.694 18.3322 17.2114C18.0092 16.5404 18.2914 15.7346 18.9625 15.4117L24.7591 12.6221L29.3461 8.22747C29.8839 7.71223 30.7374 7.7306 31.2526 8.26831C31.7678 8.80602 31.7495 9.65962 31.2118 10.1748L26.4698 14.7177C26.3672 14.816 26.2498 14.8974 26.1217 14.9591L20.1319 17.8417C19.9435 17.9325 19.7443 17.9754 19.5482 17.9754Z" fill="#FFAB8F"/>
        <path d="M25.7589 9.30673C25.9197 8.42812 26.6321 7.79303 27.4601 7.79303H30.4598C31.2895 7.79303 31.9999 8.42628 32.1609 9.30673L34.8125 23.7983C34.8553 24.0324 34.7989 24.2749 34.659 24.4594C34.519 24.6439 34.3099 24.7516 34.0892 24.7516C31.8483 24.7516 26.07 24.7516 23.8306 24.7516C23.6099 24.7516 23.4007 24.6446 23.2606 24.46C23.1206 24.2754 23.0645 24.0326 23.1074 23.7983L25.7589 9.30673Z" fill="#FF6473"/>
        <path d="M28.9597 6.68753C30.6031 6.68753 31.9353 5.35531 31.9353 3.71193C31.9353 2.06855 30.6031 0.736328 28.9597 0.736328C27.3164 0.736328 25.9841 2.06855 25.9841 3.71193C25.9841 5.35531 27.3164 6.68753 28.9597 6.68753Z" fill="#FFB69E"/>
        <path d="M17.5883 15.1823L14.1127 15.1552C13.0364 15.1468 12.157 16.0126 12.1486 17.089L12.0919 24.3717C12.0802 25.8721 13.287 27.0978 14.7874 27.1096L19.4441 27.1458L19.522 17.1463C19.5304 16.07 18.6646 15.1906 17.5883 15.1823Z" fill="#64AFFF"/>
        <path d="M18.3838 10.2666C17.8865 8.75272 16.2562 7.9286 14.7424 8.42589C13.2286 8.92317 12.4044 10.5535 12.9017 12.0673C13.399 13.5812 15.0293 14.4052 16.5431 13.908C18.057 13.4108 18.8811 11.7804 18.3838 10.2666Z" fill="#FFB69E"/>
        <path d="M18.1987 14.5728L17.512 13.336L18.8776 11.1153L20.0142 4.4511C20.1333 3.75255 20.7954 3.28276 21.4947 3.40197C22.1933 3.52112 22.663 4.18398 22.5439 4.88253L21.3656 11.7916C21.338 11.9533 21.2796 12.1082 21.1937 12.248L19.7352 14.6196L18.1987 14.5728Z" fill="#FFAB8F"/>
        <path d="M17.5118 13.3359L15.5914 16.4587C15.2202 17.0624 15.4087 17.8527 16.0123 18.2239C16.2219 18.3528 16.454 18.4142 16.6832 18.4142C17.1142 18.4142 17.5351 18.197 17.7775 17.8031L19.7355 14.619L17.5118 13.3359Z" fill="#4699F2"/>
        <path d="M25.712 10.5409L23.6878 9.97333C23.5508 9.93573 23.4206 9.87672 23.302 9.7985L18.5244 6.64637C17.9028 6.23622 17.7314 5.39986 18.1415 4.77827C18.5516 4.15668 19.388 3.98524 20.0096 4.39533L24.6081 7.42937L26.3562 7.91994L26.6909 9.40248L25.712 10.5409Z" fill="#FFB69E"/>
        <path d="M29.3657 8.76447L26.3563 7.91992L25.7122 10.5408L28.6523 11.3652C28.6938 11.3766 28.7355 11.3859 28.7771 11.3932C29.4544 11.5123 30.1238 11.0982 30.3094 10.4215C30.5063 9.70343 30.0839 8.96149 29.3657 8.76447Z" fill="#F25766"/>
        </g>
        <defs>
        <clipPath id="clip0">
        <rect width="36" height="36" fill="white" transform="translate(0.583252 0.736328)"/>
        </clipPath>
        </defs>
    </symbol>   


    <symbol id="news" viewBox="0 0 36 37">
        <g clip-path="url(#clip0)">
        <path d="M0.631361 11.3649C0.386195 10.4572 0.925661 9.52525 1.84564 9.28033L28.3786 2.22392C29.2943 1.98051 30.2354 2.51964 30.4802 3.42648L35.3692 21.5365C35.6144 22.4442 35.0749 23.3762 34.1549 23.6211L7.62199 30.6775C6.70628 30.9209 5.7652 30.3818 5.52037 29.4749L0.631361 11.3649Z" fill="#EA3457"/>
        <path d="M7.17787 31.3071C6.16849 31.3071 5.24223 30.6372 4.96852 29.6238L0.0795139 11.5136C-0.0787685 10.9282 0.000916735 10.3171 0.303754 9.79279C0.608601 9.2642 1.10404 8.88595 1.69858 8.728L28.2315 1.67158C29.4501 1.34757 30.7049 2.06817 31.0317 3.27726L35.9205 21.3873C36.0788 21.9727 35.9991 22.5839 35.6962 23.1082C35.3913 23.6368 34.8959 24.015 34.3013 24.173L7.76839 31.2294C7.57127 31.2819 7.37298 31.3071 7.17787 31.3071ZM28.8236 2.73679C28.7249 2.73679 28.625 2.74935 28.5252 2.77596L1.9923 9.83229C1.69373 9.91173 1.44571 10.1003 1.29371 10.3637C1.14397 10.6231 1.10454 10.9257 1.18289 11.2154L6.07165 29.3255C6.23453 29.9289 6.86448 30.2871 7.47501 30.1249L34.0079 23.0685C34.3065 22.9891 34.5545 22.8005 34.7065 22.5371C34.8563 22.2777 34.8957 21.9751 34.8174 21.6854L29.9287 3.57533C29.7921 3.07018 29.329 2.73679 28.8236 2.73679Z" fill="#EA3457"/>
        <path d="M24.8924 35.3073H6.28576C5.33925 35.3073 4.57178 34.5451 4.57178 33.5894V12.4545C4.57178 11.5056 5.33465 10.7366 6.28576 10.7366H33.7141C34.6607 10.7366 35.4281 11.4989 35.4281 12.4545V33.5893C35.4281 34.5382 34.6653 35.3073 33.7141 35.3073H29.9937" fill="white"/>
        <path d="M33.7142 35.8786H29.9938C29.6784 35.8786 29.4224 35.6226 29.4224 35.3072C29.4224 34.9918 29.6783 34.7357 29.9938 34.7357H33.7142C34.3442 34.7357 34.8568 34.2212 34.8568 33.5889V12.4541C34.8568 11.8219 34.3442 11.3076 33.7142 11.3076H6.28583C5.65588 11.3078 5.14329 11.8219 5.14329 12.4541V33.589C5.14329 34.2213 5.65588 34.7358 6.28583 34.7358H24.8924C25.2078 34.7358 25.4639 34.9918 25.4639 35.3073C25.4639 35.6226 25.2079 35.8787 24.8924 35.8787H6.28583C5.0256 35.8787 4.00049 34.8516 4.00049 33.5891V12.4541C4.00049 11.1919 5.0256 10.165 6.28583 10.165H33.7142C34.9745 10.165 35.9996 11.1922 35.9996 12.4544V33.5892C35.9996 34.8515 34.9745 35.8786 33.7142 35.8786Z" fill="#602F75"/>
        <path d="M17.1432 22.1647H7.4292V27.8789H17.1432V22.1647Z" fill="#FFE600"/>
        <path d="M17.1429 28.4503H7.42886C7.11347 28.4503 6.85742 28.1944 6.85742 27.8789V22.1647C6.85742 21.8493 7.11339 21.5933 7.42886 21.5933H17.1428C17.4582 21.5933 17.7143 21.8492 17.7143 22.1647V27.8789C17.7143 28.1943 17.4583 28.4503 17.1429 28.4503ZM8.0003 27.3074H16.5715V22.7361H8.0003V27.3074Z" fill="#602F75"/>
        <path d="M33.1423 22.1647H18.8569V23.3075H33.1423V22.1647Z" fill="#00E7FF"/>
        <path d="M33.1423 26.736H18.8569V27.8788H33.1423V26.736Z" fill="#EA3457"/>
        <path d="M33.1428 24.4504H18.8574V25.5932H33.1428V24.4504Z" fill="#00E7FF"/>
        <path d="M33.1428 29.0217H7.4292V30.1645H33.1428V29.0217Z" fill="#00E7FF"/>
        <path d="M33.1428 31.3074H7.4292V32.4502H33.1428V31.3074Z" fill="#EA3457"/>
        <path d="M10.1387 17.4488H10.2235V14.5231C10.2235 14.4477 10.2281 14.3766 10.2375 14.3097C10.247 14.2428 10.2675 14.1846 10.2992 14.1354C10.3309 14.086 10.3778 14.0465 10.4403 14.0172C10.5026 13.9877 10.5877 13.9731 10.696 13.9731C10.8157 13.9731 10.9103 13.9879 10.9797 14.0172C11.0489 14.0469 11.1014 14.086 11.1366 14.1354C11.1717 14.1846 11.194 14.2428 11.2035 14.3097C11.2129 14.3766 11.2178 14.4477 11.2178 14.5231V18.0976C11.2178 18.2011 11.2146 18.301 11.2089 18.3974C11.2032 18.4937 11.1843 18.5803 11.1526 18.6565C11.1209 18.7328 11.0692 18.7936 10.9975 18.8397C10.9258 18.8857 10.8253 18.9085 10.6961 18.9085H10.2307C10.1202 18.9085 10.0279 18.8869 9.95385 18.8434C9.87986 18.8 9.81817 18.7468 9.76904 18.6843C9.71957 18.6223 9.68015 18.5572 9.65077 18.4888C9.6213 18.4209 9.59845 18.3631 9.58221 18.316L8.51743 15.4323H8.43289V18.3583C8.43289 18.4337 8.42804 18.5046 8.41891 18.5714C8.40946 18.6383 8.38895 18.6965 8.35723 18.746C8.3255 18.7951 8.27838 18.8349 8.2161 18.864C8.15383 18.8931 8.06837 18.908 7.96039 18.908C7.8381 18.908 7.74184 18.8931 7.67128 18.864C7.60072 18.8349 7.54782 18.7951 7.51275 18.746C7.47734 18.6966 7.45508 18.6383 7.44562 18.5714C7.4365 18.5045 7.43164 18.4337 7.43164 18.3583V14.7838C7.43164 14.6827 7.43449 14.5835 7.44051 14.4861C7.4462 14.3886 7.46562 14.3015 7.49852 14.2252C7.53141 14.149 7.58364 14.0878 7.65538 14.0418C7.72711 13.9958 7.82847 13.973 7.96022 13.973H8.42561C8.54305 13.973 8.63872 13.9958 8.71305 14.0418C8.78704 14.0876 8.84764 14.1375 8.89443 14.1916C8.94616 14.255 8.98726 14.3279 9.01814 14.4101L10.1387 17.4488Z" fill="#602F75"/>
        <path d="M15.0039 16.8988C15.0039 16.9366 15.0016 16.9805 14.997 17.0311C14.9924 17.0817 14.9742 17.13 14.9424 17.1757C14.9107 17.2217 14.8607 17.2608 14.7927 17.2937C14.7247 17.3266 14.6281 17.3431 14.5036 17.3431H13.1005V17.6816C13.1005 17.7379 13.1076 17.7968 13.1216 17.8579C13.1359 17.919 13.1599 17.9754 13.194 18.0271C13.2279 18.0791 13.2731 18.1213 13.33 18.154C13.3862 18.1869 13.4554 18.2034 13.538 18.2034C13.632 18.2034 13.7043 18.1922 13.7548 18.17C13.8054 18.1477 13.8452 18.12 13.8749 18.0871C13.9043 18.0545 13.9306 18.0191 13.954 17.9814C13.9774 17.944 14.0086 17.9086 14.0474 17.8757C14.0862 17.8428 14.14 17.8151 14.2094 17.7928C14.2785 17.7705 14.3745 17.7594 14.4968 17.7594C14.5554 17.7594 14.6122 17.7643 14.6676 17.7734C14.7228 17.7828 14.7716 17.8008 14.8142 17.8265C14.8562 17.8526 14.8904 17.8886 14.9162 17.9343C14.9419 17.98 14.9551 18.0391 14.9551 18.1123C14.9551 18.2649 14.9068 18.3923 14.8105 18.4946C14.7143 18.5968 14.5931 18.6789 14.4474 18.7394C14.3014 18.8008 14.1437 18.8443 13.9731 18.87C13.8029 18.896 13.6437 18.9088 13.4955 18.9088C13.3003 18.9062 13.1149 18.8817 12.9386 18.8348C12.7623 18.7879 12.6066 18.7125 12.4714 18.6091C12.3363 18.5056 12.2286 18.3705 12.1488 18.2036C12.0692 18.0368 12.0288 17.8325 12.0288 17.5905V16.7648C12.0288 16.5416 12.0553 16.3525 12.1082 16.1973C12.1611 16.0421 12.2299 15.9131 12.3145 15.8096C12.399 15.7062 12.4942 15.6256 12.5999 15.5682C12.7056 15.5108 12.8125 15.4677 12.9207 15.4394C13.0287 15.4114 13.1316 15.3937 13.229 15.3866C13.3267 15.3797 13.4107 15.376 13.4813 15.376C13.7187 15.376 13.9213 15.3972 14.0893 15.4395C14.2573 15.4818 14.3979 15.5372 14.5108 15.6052C14.6236 15.6732 14.7131 15.7524 14.7788 15.8415C14.8445 15.9307 14.894 16.0232 14.9271 16.1181C14.96 16.2135 14.9811 16.3101 14.9908 16.4072C14.9999 16.5049 15.0048 16.5958 15.0048 16.6806V16.8989H15.0039V16.8988ZM13.1002 16.8143H13.9816C13.9816 16.7037 13.9784 16.6057 13.9727 16.52C13.967 16.4343 13.9493 16.3617 13.9199 16.3031C13.8902 16.2445 13.8445 16.2 13.7825 16.1691C13.7204 16.1382 13.6316 16.1234 13.5162 16.1234C13.42 16.1234 13.344 16.1386 13.2888 16.1691C13.2336 16.1997 13.1919 16.2377 13.1637 16.2834C13.1354 16.3291 13.1176 16.3782 13.1105 16.4299C13.1034 16.4817 13.1 16.5274 13.1 16.5674V16.8142H13.1002V16.8143Z" fill="#602F75"/>
        <path d="M17.767 15.792C17.8801 15.792 17.9804 15.8277 18.0686 15.8997C18.1566 15.9711 18.2346 16.1 18.3029 16.2857L18.6766 17.2796H18.7329L19.1277 15.8977C19.1466 15.8323 19.1706 15.7686 19.2 15.7071C19.2295 15.6463 19.2655 15.5917 19.3078 15.5434C19.3498 15.4951 19.4003 15.4565 19.4592 15.4271C19.5178 15.3977 19.5883 15.3831 19.6706 15.3831C19.7552 15.3831 19.8269 15.3985 19.8857 15.4288C19.9443 15.4594 19.9926 15.4997 20.0303 15.5488C20.0677 15.5983 20.0948 15.6546 20.1111 15.718C20.1277 15.7817 20.136 15.8463 20.136 15.9123C20.136 15.9757 20.1271 16.0374 20.1095 16.0971C20.0917 16.1568 20.0723 16.2174 20.0515 16.2788L19.2689 18.3585C19.2149 18.497 19.1661 18.6033 19.1224 18.6776C19.0789 18.7516 19.0361 18.8054 18.9938 18.8394C18.9518 18.8737 18.9093 18.8933 18.8669 18.8996C18.8249 18.9053 18.78 18.9082 18.7329 18.9082C18.6812 18.9082 18.6324 18.905 18.5866 18.8996C18.5409 18.8936 18.4948 18.8736 18.4491 18.8394C18.4034 18.8054 18.3568 18.7514 18.31 18.6776C18.2629 18.6034 18.2138 18.4971 18.1617 18.3585L17.7952 17.0896H17.7389L17.3583 18.3585C17.3064 18.497 17.2589 18.6033 17.2155 18.6776C17.172 18.7516 17.1295 18.8054 17.0886 18.8394C17.0474 18.8737 17.0057 18.8933 16.9634 18.8996C16.9212 18.9053 16.8763 18.9082 16.8292 18.9082C16.7774 18.9082 16.7286 18.905 16.6829 18.8996C16.6371 18.8936 16.5914 18.8736 16.5454 18.8394C16.4997 18.8054 16.4534 18.7514 16.4063 18.6776C16.3594 18.6034 16.31 18.4971 16.2583 18.3585L15.4683 16.2788C15.4475 16.2226 15.4277 16.1617 15.4103 16.0971C15.3926 16.0326 15.3838 15.9685 15.3838 15.9048C15.3838 15.8369 15.3927 15.7708 15.4103 15.7074C15.4281 15.6443 15.456 15.5885 15.4949 15.54C15.5337 15.492 15.5846 15.4537 15.6483 15.4257C15.7117 15.3974 15.7902 15.3835 15.8842 15.3835C15.95 15.3835 16.0094 15.3983 16.0623 15.4275C16.1154 15.4572 16.1628 15.4954 16.2052 15.5437C16.2474 15.592 16.2838 15.6466 16.3146 15.7075C16.3449 15.7689 16.3708 15.8326 16.392 15.8981L16.8363 17.28H16.8925L17.2168 16.286C17.2756 16.1006 17.3536 15.9715 17.4511 15.9001C17.549 15.8277 17.6541 15.792 17.767 15.792Z" fill="#602F75"/>
        <path d="M21.5813 16.3065C21.5813 16.3536 21.5967 16.397 21.627 16.437C21.6575 16.4773 21.6993 16.5151 21.7521 16.5513C21.8049 16.5881 21.8658 16.6239 21.9355 16.659C22.0046 16.6942 22.0769 16.7296 22.1524 16.7647C22.2672 16.8213 22.3849 16.8816 22.5047 16.9465C22.6247 17.0113 22.7341 17.0868 22.8323 17.1736C22.9312 17.2608 23.0115 17.361 23.0741 17.4753C23.1364 17.5893 23.1675 17.7239 23.1675 17.879C23.1675 18.0199 23.1469 18.1447 23.1055 18.2527C23.0644 18.3607 23.0098 18.4545 22.9417 18.533C22.8738 18.6116 22.794 18.6769 22.7038 18.7284C22.6135 18.7804 22.5184 18.8216 22.4184 18.8521C22.3183 18.8827 22.2166 18.9044 22.1135 18.9173C22.0101 18.9304 21.9126 18.9367 21.821 18.9367C21.6398 18.9367 21.4824 18.9213 21.3487 18.891C21.2147 18.8604 21.0996 18.8198 21.0033 18.7693C20.9067 18.7187 20.8276 18.661 20.7653 18.5967C20.703 18.5324 20.6542 18.4644 20.619 18.3939C20.5836 18.3235 20.559 18.2536 20.5448 18.1842C20.5308 18.115 20.5239 18.0508 20.5239 17.9922C20.5239 17.851 20.5633 17.7479 20.6419 17.6819C20.7205 17.6159 20.8411 17.583 21.0034 17.583C21.1208 17.583 21.2171 17.6147 21.2925 17.6784C21.3676 17.7419 21.4077 17.8442 21.4125 17.9847C21.4148 18.0322 21.4282 18.0696 21.4531 18.0979C21.4777 18.1262 21.5094 18.149 21.5483 18.1668C21.5871 18.1842 21.63 18.1962 21.6768 18.2019C21.724 18.208 21.7697 18.2108 21.8143 18.2108C21.9057 18.2108 21.9806 18.1865 22.038 18.1382C22.0954 18.0903 22.1246 18.0271 22.1246 17.9496C22.1246 17.8839 22.1051 17.8225 22.0663 17.7648C22.0275 17.7074 21.9766 17.6537 21.9131 17.6043C21.8494 17.5552 21.7771 17.5071 21.6963 17.4614C21.6152 17.4157 21.5323 17.3694 21.4477 17.3225C21.3419 17.266 21.2356 17.2059 21.1285 17.1426C21.0216 17.0791 20.9248 17.0086 20.8376 16.9311C20.7505 16.8537 20.6802 16.7663 20.6262 16.6686C20.5722 16.5709 20.5451 16.46 20.5451 16.3354C20.5451 16.1517 20.5751 15.9986 20.6351 15.8755C20.6948 15.7518 20.7825 15.6521 20.8977 15.5757C21.0125 15.4995 21.1534 15.4449 21.3191 15.412C21.4848 15.3791 21.6731 15.36 21.8848 15.3558H21.941C22.1313 15.3558 22.2927 15.3721 22.4256 15.4049C22.5584 15.4378 22.669 15.4809 22.7569 15.5337C22.8452 15.5865 22.9144 15.646 22.9649 15.7118C23.0155 15.7775 23.0532 15.8438 23.0778 15.9106C23.1026 15.9778 23.118 16.0418 23.1238 16.1029C23.1295 16.164 23.1323 16.2157 23.1323 16.258C23.1323 16.3283 23.1178 16.3866 23.0883 16.4323C23.0588 16.4783 23.0203 16.5146 22.972 16.5417C22.9241 16.5688 22.8695 16.5874 22.8083 16.5979C22.7472 16.6085 22.6834 16.6151 22.6181 16.6171C22.5615 16.6171 22.5103 16.608 22.4646 16.5891C22.4189 16.5702 22.3795 16.5468 22.3466 16.5182C22.3137 16.4901 22.2884 16.4585 22.2706 16.4233C22.2529 16.3879 22.2441 16.3539 22.2441 16.321C22.2392 16.2319 22.2035 16.1636 22.1367 16.1165C22.0698 16.0696 21.9879 16.0462 21.8919 16.0462C21.8519 16.0462 21.8139 16.0502 21.7773 16.0585C21.741 16.0667 21.7081 16.0807 21.6784 16.1007C21.649 16.1205 21.6256 16.147 21.6081 16.1798C21.5907 16.2128 21.5813 16.2551 21.5813 16.3065Z" fill="#602F75"/>
        </g>
        <defs>
        <clipPath id="clip0">
        <rect width="36" height="36" fill="white" transform="translate(0 0.736328)"/>
        </clipPath>
        </defs>
    </symbol>   


    <symbol id="safe" viewBox="0 0 37 37">
        <g clip-path="url(#clip0)">
        <path d="M6.98828 6.67065V26.8503H4.87891V8.78003L6.98828 6.67065Z" fill="#FDBF00"/>
        <path d="M6.98828 6.67065V26.8503H5.93359V7.72534L6.98828 6.67065Z" fill="#FF9100"/>
        <path d="M24.0039 30.0144H27.168V32.1238H24.0039V30.0144Z" fill="#FDBF00"/>
        <path d="M28.2227 34.2332H24.0039V36.3425H26.1133L28.2227 34.2332Z" fill="#FDBF00"/>
        <path d="M32.4414 9.83472V27.905L30.332 30.0144V9.83472H32.4414Z" fill="#FDBF00"/>
        <path d="M32.4414 9.83472V27.905L31.3867 28.9597V9.83472H32.4414Z" fill="#FF9100"/>
        <path d="M24.0039 11.9441V16.1628H21.8945V11.9441C21.8945 10.1932 20.411 8.78003 18.6602 8.78003C16.9093 8.78003 15.4258 10.1932 15.4258 11.9441V16.1628H13.3164V11.9441C13.3164 9.03315 15.7492 6.67065 18.6602 6.67065C21.5711 6.67065 24.0039 9.03315 24.0039 11.9441Z" fill="#537983"/>
        <path d="M24.0039 11.9441V16.1628H21.8945V11.9441C21.8945 10.1932 20.411 8.78003 18.6602 8.78003V6.67065C21.5711 6.67065 24.0039 9.03315 24.0039 11.9441Z" fill="#3E5959"/>
        <path d="M11.207 15.1082V25.7957H26.1133V15.1082H11.207Z" fill="#FDBF00"/>
        <path d="M18.6602 15.1082H26.1133V25.7957H18.6602V15.1082Z" fill="#FF9100"/>
        <path d="M26.1133 27.905V36.3425H32.4414V27.905H26.1133Z" fill="#FDBF00"/>
        <path d="M31.3867 0.342529C28.4758 0.342529 26.1133 2.70503 26.1133 5.61597C26.1133 8.5269 28.4758 10.8894 31.3867 10.8894C34.2977 10.8894 36.6602 8.5269 36.6602 5.61597C36.6602 2.70503 34.2977 0.342529 31.3867 0.342529ZM32.4414 6.67065H30.332V4.56128H32.4414V6.67065Z" fill="#FDBF00"/>
        <path d="M17.6055 19.3972H19.7148V21.5066H17.6055V19.3972Z" fill="#537983"/>
        <path d="M18.6602 19.3972H19.7148V21.5066H18.6602V19.3972Z" fill="#3E5959"/>
        <path d="M31.3867 27.905H32.4414V36.3425H31.3867V27.905Z" fill="#FF9100"/>
        <path d="M36.6602 5.61597C36.6602 8.5269 34.2977 10.8894 31.3867 10.8894V6.67065H32.4414V4.56128H31.3867V0.342529C34.2977 0.342529 36.6602 2.70503 36.6602 5.61597Z" fill="#FF9100"/>
        <path d="M10.1523 4.56128H13.3164V6.67065H10.1523V4.56128Z" fill="#FF9100"/>
        <path d="M9.09766 2.4519H13.3164V0.342529H11.207L9.09766 2.4519Z" fill="#FF9100"/>
        <path d="M4.87891 0.342529V8.78003H11.207V0.342529H4.87891Z" fill="#FDBF00"/>
        <path d="M5.93359 25.7957C3.02266 25.7957 0.660156 28.1582 0.660156 31.0691C0.660156 33.98 3.02266 36.3425 5.93359 36.3425C8.84453 36.3425 11.207 33.98 11.207 31.0691C11.207 28.1582 8.84453 25.7957 5.93359 25.7957ZM6.98828 32.1238H4.87891V30.0144H6.98828V32.1238Z" fill="#FDBF00"/>
        <path d="M11.207 31.0691C11.207 33.98 8.84453 36.3425 5.93359 36.3425V32.1238H6.98828V30.0144H5.93359V25.7957C8.84453 25.7957 11.207 28.1582 11.207 31.0691Z" fill="#FF9100"/>
        <path d="M5.93359 0.342529H11.207V8.78003H5.93359V0.342529Z" fill="#FF9100"/>
        </g>
        <defs>
        <clipPath id="clip0">
        <rect width="36" height="36" fill="white" transform="translate(0.660156 0.342529)"/>
        </clipPath>
        </defs>
    </symbol>   


    <symbol id="docs" viewBox="0 0 36 37">
        <g clip-path="url(#clip0)">
        <path d="M4.23535 0.0447998V32.8683H8.47065C8.9121 32.241 15.9704 22.2108 16.4118 21.5835L16.9412 10.8142L16.4118 0.0447998C16.0684 0.0447998 4.57876 0.0447998 4.23535 0.0447998Z" fill="#F4D844"/>
        <path d="M28.5883 0.0447998C28.2449 0.0447998 16.7553 0.0447998 16.4119 0.0447998V21.5835C17.0883 20.6223 27.9119 5.24136 28.5883 4.28009C28.5883 3.76769 28.5883 0.560588 28.5883 0.0447998Z" fill="#ECBD2C"/>
        <path d="M8.4707 4.28003V36.0447H20.1178L21.1766 20.1624L20.1178 4.28003C19.7893 4.28003 8.79908 4.28003 8.4707 4.28003Z" fill="#F9F9F9"/>
        <path d="M20.1177 4.28003V36.0447H24.7794L26.3059 30.3506L31.7647 29.0715C31.7647 29.0715 31.7647 5.65664 31.7647 4.28003C31.4362 4.28003 20.4461 4.28003 20.1177 4.28003Z" fill="#E2DFF4"/>
        <path d="M24.7793 36.0448C25.6288 35.1968 30.9133 29.9213 31.7646 29.0716C29.8718 29.0716 25.8945 29.0716 24.7793 29.0716V36.0448Z" fill="#BEBCDD"/>
        <path d="M20.1178 10.6331C18.1217 10.6331 13.8689 10.6331 12.7061 10.6331C12.7061 9.89245 12.7061 9.25602 12.7061 8.51541H20.1178L21.1767 9.57424L20.1178 10.6331Z" fill="#4E6BA6"/>
        <path d="M20.1178 14.8684C18.1217 14.8684 13.8689 14.8684 12.7061 14.8684C12.7061 14.1277 12.7061 13.4913 12.7061 12.7507H20.1178L21.1767 13.8095L20.1178 14.8684Z" fill="#A7CAFC"/>
        <path d="M20.1178 19.1036C18.1217 19.1036 13.8689 19.1036 12.7061 19.1036C12.7061 18.363 12.7061 17.7266 12.7061 16.986H20.1178L21.1767 18.0448L20.1178 19.1036Z" fill="#A7CAFC"/>
        <path d="M20.1178 23.3389C18.1217 23.3389 13.8689 23.3389 12.7061 23.3389C12.7061 22.5983 12.7061 21.9619 12.7061 21.2213H20.1178L21.1767 22.2801L20.1178 23.3389Z" fill="#A7CAFC"/>
        <path d="M27.5294 10.6331C25.5333 10.6331 21.2805 10.6331 20.1177 10.6331C20.1177 9.89245 20.1177 9.25602 20.1177 8.51541H27.5294V10.6331Z" fill="#28487A"/>
        <path d="M27.5294 14.8684C25.5333 14.8684 21.2805 14.8684 20.1177 14.8684C20.1177 14.1277 20.1177 13.4913 20.1177 12.7507H27.5294V14.8684Z" fill="#8493FB"/>
        <path d="M27.5294 19.1036C25.5333 19.1036 21.2805 19.1036 20.1177 19.1036C20.1177 18.363 20.1177 17.7266 20.1177 16.986H27.5294V19.1036Z" fill="#8493FB"/>
        <path d="M27.5294 23.3389C25.5333 23.3389 21.2805 23.3389 20.1177 23.3389C20.1177 22.5983 20.1177 21.9619 20.1177 21.2213H27.5294V23.3389Z" fill="#8493FB"/>
        <path d="M20.1178 27.5743C18.1217 27.5743 13.8689 27.5743 12.7061 27.5743C12.7061 26.8336 12.7061 26.1972 12.7061 25.4566H20.1178V27.5743Z" fill="#DD4E4E"/>
        </g>
        <defs>
        <clipPath id="clip0">
        <rect width="36" height="36" fill="white" transform="translate(0 0.0447998)"/>
        </clipPath>
        </defs>
    </symbol>   

</svg>  
